M48
METRIC,LZ,000.000
;FILE_FORMAT=3:3
;TYPE=PLATED
;Layer: PTH_Through
;EasyEDA v6.5.57, 2026-08-19 02:44:36
;21fc414544634538bdade3c9437cd426,47083fb59e924f2e982a52276fdf08c8,10
;Gerber Generator version 0.2
;Holesize 1 = 0.310 mm
T01C0.310
;Holesize 2 = 0.800 mm
T02C0.800
;Holesize 3 = 0.889 mm
T03C0.889
;Holesize 4 = 0.901 mm
T04C0.901
;Holesize 5 = 1.000 mm
T05C1.000
;Holesize 6 = 1.101 mm
T06C1.101
;Holesize 7 = 3.000 mm
T07C3.000
%
G05
G90
T01
X057277Y041783
X058293Y041783
X059309Y041783
X060325Y041783
X061341Y041783
X057785Y041275
X058801Y041275
X059817Y041275
X060833Y041275
X057277Y040767
X058293Y040767
X059309Y040767
X060325Y040767
X061341Y040767
X057785Y040259
X058801Y040259
X059817Y040259
X060833Y040259
X057277Y039751
X058293Y039751
X059309Y039751
X060325Y039751
X061341Y039751
X057785Y039243
X058801Y039243
X059817Y039243
X060833Y039243
X057277Y038735
X058293Y038735
X059309Y038735
X060325Y038735
X061341Y038735
X057785Y038227
X058801Y038227
X059817Y038227
X060833Y038227
X057277Y037719
X058293Y037719
X059309Y037719
X060325Y037719
X061341Y037719
T02
X063754Y012145
X063754Y018145
X063627Y001604
X063627Y007604
T03
X055372Y002543G85X055372Y002537
X055372Y005083G85X055372Y005077
X055372Y007623G85X055372Y007617
X055372Y010163G85X055372Y010157
X055372Y012703G85X055372Y012697
X055372Y015243G85X055372Y015237
T04
X055203Y054705
X052763Y054705
X057703Y054705
T05
X024003Y056479
X026543Y056479
X029083Y056479
X031623Y056479
X069977Y044831
X067437Y044831
X064897Y044831
X062357Y044831
X059817Y044831
X057277Y044831
X054737Y044831
X054737Y029591
X057277Y029591
X059817Y029591
X062357Y029591
X064897Y029591
X069977Y029591
X067437Y029593G85X067437Y029588
T06
X066294Y052959
X066294Y055499
T07
X012563Y055279
X043063Y055279
X012563Y026579
X043063Y026579
M30
