G04 Layer: TopSilkscreenLayer*
G04 EasyEDA v6.5.57, 2026-08-19 02:44:36*
G04 21fc414544634538bdade3c9437cd426,47083fb59e924f2e982a52276fdf08c8,10*
G04 Gerber Generator version 0.2*
G04 Scale: 100 percent, Rotated: No, Reflected: No *
G04 Dimensions in millimeters *
G04 leading zeros omitted , absolute positions ,4 integer and 5 decimal *
%FSLAX45Y45*%
%MOMM*%

%ADD10C,0.1524*%
%ADD11C,0.2032*%
%ADD12C,0.1219*%
%ADD13C,0.1500*%
%ADD14C,0.1200*%
%ADD15C,0.1500*%
%ADD16C,0.0109*%
%ADD17C,0.2540*%
%ADD18C,0.1270*%

%LPD*%
D10*
X6909815Y5435600D02*
G01*
X6800850Y5435600D01*
X6909815Y5435600D02*
G01*
X6909815Y5388863D01*
X6904736Y5373370D01*
X6899402Y5368036D01*
X6888988Y5362955D01*
X6878574Y5362955D01*
X6868159Y5368036D01*
X6863079Y5373370D01*
X6858000Y5388863D01*
X6858000Y5435600D02*
G01*
X6858000Y5388863D01*
X6852665Y5373370D01*
X6847586Y5368036D01*
X6837172Y5362955D01*
X6821424Y5362955D01*
X6811009Y5368036D01*
X6805929Y5373370D01*
X6800850Y5388863D01*
X6800850Y5435600D01*
X6909815Y5292089D02*
G01*
X6800850Y5292089D01*
X6909815Y5328665D02*
G01*
X6909815Y5255768D01*
X6888988Y5221478D02*
G01*
X6894322Y5211063D01*
X6909815Y5195570D01*
X6800850Y5195570D01*
X6835965Y2092906D02*
G01*
X6830631Y2103320D01*
X6820217Y2113734D01*
X6810057Y2118814D01*
X6789229Y2118814D01*
X6778815Y2113734D01*
X6768401Y2103320D01*
X6763067Y2092906D01*
X6757987Y2077158D01*
X6757987Y2051250D01*
X6763067Y2035756D01*
X6768401Y2025342D01*
X6778815Y2014928D01*
X6789229Y2009848D01*
X6810057Y2009848D01*
X6820217Y2014928D01*
X6830631Y2025342D01*
X6835965Y2035756D01*
X6870255Y2097986D02*
G01*
X6880669Y2103320D01*
X6896163Y2118814D01*
X6896163Y2009848D01*
D11*
X6575361Y1582620D02*
G01*
X6593903Y1591764D01*
X6621589Y1619450D01*
X6621589Y1425648D01*
X6737921Y1619450D02*
G01*
X6710235Y1610306D01*
X6691693Y1582620D01*
X6682549Y1536392D01*
X6682549Y1508706D01*
X6691693Y1462478D01*
X6710235Y1434792D01*
X6737921Y1425648D01*
X6756463Y1425648D01*
X6784149Y1434792D01*
X6802691Y1462478D01*
X6811835Y1508706D01*
X6811835Y1536392D01*
X6802691Y1582620D01*
X6784149Y1610306D01*
X6756463Y1619450D01*
X6737921Y1619450D01*
X6928167Y1619450D02*
G01*
X6900481Y1610306D01*
X6881939Y1582620D01*
X6872795Y1536392D01*
X6872795Y1508706D01*
X6881939Y1462478D01*
X6900481Y1434792D01*
X6928167Y1425648D01*
X6946709Y1425648D01*
X6974395Y1434792D01*
X6992937Y1462478D01*
X7002081Y1508706D01*
X7002081Y1536392D01*
X6992937Y1582620D01*
X6974395Y1610306D01*
X6946709Y1619450D01*
X6928167Y1619450D01*
X7063041Y1554934D02*
G01*
X7063041Y1425648D01*
X7063041Y1517850D02*
G01*
X7090727Y1545536D01*
X7109269Y1554934D01*
X7136955Y1554934D01*
X7155497Y1545536D01*
X7164641Y1517850D01*
X7164641Y1425648D01*
X7225601Y1619450D02*
G01*
X7225601Y1425648D01*
X7225601Y1619450D02*
G01*
X7345743Y1619450D01*
X7225601Y1527248D02*
G01*
X7299515Y1527248D01*
D10*
X6823265Y1038806D02*
G01*
X6817931Y1049220D01*
X6807517Y1059634D01*
X6797357Y1064714D01*
X6776529Y1064714D01*
X6766115Y1059634D01*
X6755701Y1049220D01*
X6750367Y1038806D01*
X6745287Y1023058D01*
X6745287Y997150D01*
X6750367Y981656D01*
X6755701Y971242D01*
X6766115Y960828D01*
X6776529Y955748D01*
X6797357Y955748D01*
X6807517Y960828D01*
X6817931Y971242D01*
X6823265Y981656D01*
X6862635Y1038806D02*
G01*
X6862635Y1043886D01*
X6867969Y1054300D01*
X6873049Y1059634D01*
X6883463Y1064714D01*
X6904291Y1064714D01*
X6914705Y1059634D01*
X6919785Y1054300D01*
X6925119Y1043886D01*
X6925119Y1033472D01*
X6919785Y1023058D01*
X6909371Y1007564D01*
X6857555Y955748D01*
X6930199Y955748D01*
D11*
X6562661Y528520D02*
G01*
X6581203Y537664D01*
X6608889Y565350D01*
X6608889Y371548D01*
X6725221Y565350D02*
G01*
X6697535Y556206D01*
X6678993Y528520D01*
X6669849Y482292D01*
X6669849Y454606D01*
X6678993Y408378D01*
X6697535Y380692D01*
X6725221Y371548D01*
X6743763Y371548D01*
X6771449Y380692D01*
X6789991Y408378D01*
X6799135Y454606D01*
X6799135Y482292D01*
X6789991Y528520D01*
X6771449Y556206D01*
X6743763Y565350D01*
X6725221Y565350D01*
X6915467Y565350D02*
G01*
X6887781Y556206D01*
X6869239Y528520D01*
X6860095Y482292D01*
X6860095Y454606D01*
X6869239Y408378D01*
X6887781Y380692D01*
X6915467Y371548D01*
X6934009Y371548D01*
X6961695Y380692D01*
X6980237Y408378D01*
X6989381Y454606D01*
X6989381Y482292D01*
X6980237Y528520D01*
X6961695Y556206D01*
X6934009Y565350D01*
X6915467Y565350D01*
X7050341Y500834D02*
G01*
X7050341Y371548D01*
X7050341Y463750D02*
G01*
X7078027Y491436D01*
X7096569Y500834D01*
X7124255Y500834D01*
X7142797Y491436D01*
X7151941Y463750D01*
X7151941Y371548D01*
X7212901Y565350D02*
G01*
X7212901Y371548D01*
X7212901Y565350D02*
G01*
X7333043Y565350D01*
X7212901Y473148D02*
G01*
X7286815Y473148D01*
D10*
X2757888Y5919805D02*
G01*
X2757888Y5810839D01*
X2757888Y5919805D02*
G01*
X2794210Y5919805D01*
X2809958Y5914725D01*
X2820118Y5904311D01*
X2825452Y5893897D01*
X2830532Y5878149D01*
X2830532Y5852241D01*
X2825452Y5836747D01*
X2820118Y5826333D01*
X2809958Y5815919D01*
X2794210Y5810839D01*
X2757888Y5810839D01*
X2937720Y5904311D02*
G01*
X2927306Y5914725D01*
X2911558Y5919805D01*
X2890984Y5919805D01*
X2875236Y5914725D01*
X2864822Y5904311D01*
X2864822Y5893897D01*
X2870156Y5883483D01*
X2875236Y5878149D01*
X2885650Y5873069D01*
X2916892Y5862655D01*
X2927306Y5857575D01*
X2932386Y5852241D01*
X2937720Y5841827D01*
X2937720Y5826333D01*
X2927306Y5815919D01*
X2911558Y5810839D01*
X2890984Y5810839D01*
X2875236Y5815919D01*
X2864822Y5826333D01*
X2972010Y5898977D02*
G01*
X2982424Y5904311D01*
X2997918Y5919805D01*
X2997918Y5810839D01*
D11*
X2176741Y4407794D02*
G01*
X2158199Y4398396D01*
X2139657Y4380108D01*
X2130513Y4361566D01*
X2121369Y4333880D01*
X2121369Y4287652D01*
X2130513Y4259966D01*
X2139657Y4241424D01*
X2158199Y4222882D01*
X2176741Y4213738D01*
X2213571Y4213738D01*
X2232113Y4222882D01*
X2250655Y4241424D01*
X2259799Y4259966D01*
X2269197Y4287652D01*
X2269197Y4333880D01*
X2259799Y4361566D01*
X2250655Y4380108D01*
X2232113Y4398396D01*
X2213571Y4407794D01*
X2176741Y4407794D01*
X2330157Y4407794D02*
G01*
X2330157Y4213738D01*
X2330157Y4213738D02*
G01*
X2440901Y4213738D01*
X2501861Y4407794D02*
G01*
X2501861Y4213738D01*
X2501861Y4407794D02*
G01*
X2622003Y4407794D01*
X2501861Y4315338D02*
G01*
X2575775Y4315338D01*
X2501861Y4213738D02*
G01*
X2622003Y4213738D01*
X2682963Y4407794D02*
G01*
X2682963Y4213738D01*
X2682963Y4407794D02*
G01*
X2747479Y4407794D01*
X2775165Y4398396D01*
X2793707Y4380108D01*
X2802851Y4361566D01*
X2812249Y4333880D01*
X2812249Y4287652D01*
X2802851Y4259966D01*
X2793707Y4241424D01*
X2775165Y4222882D01*
X2747479Y4213738D01*
X2682963Y4213738D01*
X3015449Y4370710D02*
G01*
X3033737Y4380108D01*
X3061677Y4407794D01*
X3061677Y4213738D01*
X3131781Y4259966D02*
G01*
X3122637Y4250568D01*
X3131781Y4241424D01*
X3140925Y4250568D01*
X3131781Y4259966D01*
X3220427Y4407794D02*
G01*
X3322027Y4407794D01*
X3266655Y4333880D01*
X3294341Y4333880D01*
X3312883Y4324482D01*
X3322027Y4315338D01*
X3331171Y4287652D01*
X3331171Y4269110D01*
X3322027Y4241424D01*
X3303485Y4222882D01*
X3275799Y4213738D01*
X3248113Y4213738D01*
X3220427Y4222882D01*
X3211283Y4232280D01*
X3201885Y4250568D01*
X3392131Y4407794D02*
G01*
X3392131Y4343024D01*
X3466045Y4407794D02*
G01*
X3466045Y4343024D01*
X2291295Y4070664D02*
G01*
X2309837Y4080062D01*
X2337523Y4107748D01*
X2337523Y3913692D01*
X2407627Y4061520D02*
G01*
X2407627Y4070664D01*
X2417025Y4089206D01*
X2426169Y4098350D01*
X2444711Y4107748D01*
X2481541Y4107748D01*
X2500083Y4098350D01*
X2509227Y4089206D01*
X2518625Y4070664D01*
X2518625Y4052376D01*
X2509227Y4033834D01*
X2490685Y4006148D01*
X2398483Y3913692D01*
X2527769Y3913692D01*
X2634957Y4107748D02*
G01*
X2607271Y4098350D01*
X2597873Y4080062D01*
X2597873Y4061520D01*
X2607271Y4042978D01*
X2625559Y4033834D01*
X2662643Y4024690D01*
X2690329Y4015292D01*
X2708871Y3996750D01*
X2718015Y3978462D01*
X2718015Y3950776D01*
X2708871Y3932234D01*
X2699473Y3923090D01*
X2671787Y3913692D01*
X2634957Y3913692D01*
X2607271Y3923090D01*
X2597873Y3932234D01*
X2588729Y3950776D01*
X2588729Y3978462D01*
X2597873Y3996750D01*
X2616415Y4015292D01*
X2644101Y4024690D01*
X2681185Y4033834D01*
X2699473Y4042978D01*
X2708871Y4061520D01*
X2708871Y4080062D01*
X2699473Y4098350D01*
X2671787Y4107748D01*
X2634957Y4107748D01*
X2778975Y4042978D02*
G01*
X2880575Y3913692D01*
X2880575Y4042978D02*
G01*
X2778975Y3913692D01*
X3052279Y4080062D02*
G01*
X3043135Y4098350D01*
X3015449Y4107748D01*
X2996907Y4107748D01*
X2969221Y4098350D01*
X2950679Y4070664D01*
X2941535Y4024690D01*
X2941535Y3978462D01*
X2950679Y3941378D01*
X2969221Y3923090D01*
X2996907Y3913692D01*
X3006305Y3913692D01*
X3033991Y3923090D01*
X3052279Y3941378D01*
X3061677Y3969064D01*
X3061677Y3978462D01*
X3052279Y4006148D01*
X3033991Y4024690D01*
X3006305Y4033834D01*
X2996907Y4033834D01*
X2969221Y4024690D01*
X2950679Y4006148D01*
X2941535Y3978462D01*
X3214839Y4107748D02*
G01*
X3122637Y3978462D01*
X3261067Y3978462D01*
X3214839Y4107748D02*
G01*
X3214839Y3913692D01*
D10*
X4700259Y1944113D02*
G01*
X4700259Y1861055D01*
X4694925Y1845307D01*
X4689845Y1840227D01*
X4679431Y1835147D01*
X4669017Y1835147D01*
X4658603Y1840227D01*
X4653269Y1845307D01*
X4648189Y1861055D01*
X4648189Y1871469D01*
X4734549Y1923285D02*
G01*
X4744709Y1928619D01*
X4760457Y1944113D01*
X4760457Y1835147D01*
D11*
X5013695Y1584195D02*
G01*
X5068813Y1584195D01*
X5038841Y1544317D01*
X5053827Y1544317D01*
X5063733Y1539237D01*
X5068813Y1534157D01*
X5073893Y1519171D01*
X5073893Y1509265D01*
X5068813Y1494279D01*
X5058907Y1484119D01*
X5043667Y1479293D01*
X5028681Y1479293D01*
X5013695Y1484119D01*
X5008869Y1489199D01*
X5003789Y1499105D01*
X5106913Y1584195D02*
G01*
X5146791Y1479293D01*
X5186669Y1584195D02*
G01*
X5146791Y1479293D01*
X5229849Y1584195D02*
G01*
X5284713Y1584195D01*
X5254741Y1544317D01*
X5269727Y1544317D01*
X5279887Y1539237D01*
X5284713Y1534157D01*
X5289793Y1519171D01*
X5289793Y1509265D01*
X5284713Y1494279D01*
X5274807Y1484119D01*
X5259821Y1479293D01*
X5244835Y1479293D01*
X5229849Y1484119D01*
X5224769Y1489199D01*
X5219689Y1499105D01*
X5091419Y1292603D02*
G01*
X5086593Y1302509D01*
X5076433Y1312415D01*
X5066527Y1317495D01*
X5046461Y1317495D01*
X5036555Y1312415D01*
X5026395Y1302509D01*
X5021569Y1292603D01*
X5016489Y1277617D01*
X5016489Y1252471D01*
X5021569Y1237485D01*
X5026395Y1227579D01*
X5036555Y1217419D01*
X5046461Y1212593D01*
X5066527Y1212593D01*
X5076433Y1217419D01*
X5086593Y1227579D01*
X5091419Y1237485D01*
X5194543Y1302509D02*
G01*
X5184383Y1312415D01*
X5169397Y1317495D01*
X5149585Y1317495D01*
X5134599Y1312415D01*
X5124439Y1302509D01*
X5124439Y1292603D01*
X5129519Y1282443D01*
X5134599Y1277617D01*
X5144505Y1272537D01*
X5174477Y1262377D01*
X5184383Y1257551D01*
X5189463Y1252471D01*
X5194543Y1242565D01*
X5194543Y1227579D01*
X5184383Y1217419D01*
X5169397Y1212593D01*
X5149585Y1212593D01*
X5134599Y1217419D01*
X5124439Y1227579D01*
X5003789Y1063495D02*
G01*
X5003789Y958593D01*
X5003789Y1063495D02*
G01*
X5043667Y958593D01*
X5083799Y1063495D02*
G01*
X5043667Y958593D01*
X5083799Y1063495D02*
G01*
X5083799Y958593D01*
X5146791Y1063495D02*
G01*
X5136885Y1058415D01*
X5126725Y1048509D01*
X5121899Y1038603D01*
X5116819Y1023617D01*
X5116819Y998471D01*
X5121899Y983485D01*
X5126725Y973579D01*
X5136885Y963419D01*
X5146791Y958593D01*
X5166857Y958593D01*
X5176763Y963419D01*
X5186669Y973579D01*
X5191749Y983485D01*
X5196829Y998471D01*
X5196829Y1023617D01*
X5191749Y1038603D01*
X5186669Y1048509D01*
X5176763Y1058415D01*
X5166857Y1063495D01*
X5146791Y1063495D01*
X5299699Y1048509D02*
G01*
X5289793Y1058415D01*
X5274807Y1063495D01*
X5254741Y1063495D01*
X5239755Y1058415D01*
X5229849Y1048509D01*
X5229849Y1038603D01*
X5234675Y1028443D01*
X5239755Y1023617D01*
X5249915Y1018537D01*
X5279887Y1008377D01*
X5289793Y1003551D01*
X5294873Y998471D01*
X5299699Y988565D01*
X5299699Y973579D01*
X5289793Y963419D01*
X5274807Y958593D01*
X5254741Y958593D01*
X5239755Y963419D01*
X5229849Y973579D01*
X5332719Y1063495D02*
G01*
X5332719Y958593D01*
X5078719Y784603D02*
G01*
X5073893Y794509D01*
X5063733Y804415D01*
X5053827Y809495D01*
X5033761Y809495D01*
X5023855Y804415D01*
X5013695Y794509D01*
X5008869Y784603D01*
X5003789Y769617D01*
X5003789Y744471D01*
X5008869Y729485D01*
X5013695Y719579D01*
X5023855Y709419D01*
X5033761Y704593D01*
X5053827Y704593D01*
X5063733Y709419D01*
X5073893Y719579D01*
X5078719Y729485D01*
X5111739Y809495D02*
G01*
X5111739Y704593D01*
X5111739Y704593D02*
G01*
X5171683Y704593D01*
X5204703Y809495D02*
G01*
X5204703Y704593D01*
X5274807Y809495D02*
G01*
X5204703Y739391D01*
X5229849Y764537D02*
G01*
X5274807Y704593D01*
X5003789Y555495D02*
G01*
X5003789Y450593D01*
X5003789Y555495D02*
G01*
X5043667Y450593D01*
X5083799Y555495D02*
G01*
X5043667Y450593D01*
X5083799Y555495D02*
G01*
X5083799Y450593D01*
X5116819Y555495D02*
G01*
X5116819Y450593D01*
X5219689Y540509D02*
G01*
X5209783Y550415D01*
X5194797Y555495D01*
X5174731Y555495D01*
X5159745Y550415D01*
X5149839Y540509D01*
X5149839Y530603D01*
X5154665Y520443D01*
X5159745Y515617D01*
X5169905Y510537D01*
X5199877Y500377D01*
X5209783Y495551D01*
X5214863Y490471D01*
X5219689Y480565D01*
X5219689Y465579D01*
X5209783Y455419D01*
X5194797Y450593D01*
X5174731Y450593D01*
X5159745Y455419D01*
X5149839Y465579D01*
X5282681Y555495D02*
G01*
X5272775Y550415D01*
X5262869Y540509D01*
X5257789Y530603D01*
X5252709Y515617D01*
X5252709Y490471D01*
X5257789Y475485D01*
X5262869Y465579D01*
X5272775Y455419D01*
X5282681Y450593D01*
X5302747Y450593D01*
X5312907Y455419D01*
X5322813Y465579D01*
X5327893Y475485D01*
X5332719Y490471D01*
X5332719Y515617D01*
X5327893Y530603D01*
X5322813Y540509D01*
X5312907Y550415D01*
X5302747Y555495D01*
X5282681Y555495D01*
X5078719Y276603D02*
G01*
X5073893Y286509D01*
X5063733Y296415D01*
X5053827Y301495D01*
X5033761Y301495D01*
X5023855Y296415D01*
X5013695Y286509D01*
X5008869Y276603D01*
X5003789Y261617D01*
X5003789Y236471D01*
X5008869Y221485D01*
X5013695Y211579D01*
X5023855Y201419D01*
X5033761Y196593D01*
X5053827Y196593D01*
X5063733Y201419D01*
X5073893Y211579D01*
X5078719Y221485D01*
X5078719Y236471D01*
X5053827Y236471D02*
G01*
X5078719Y236471D01*
X5111739Y301495D02*
G01*
X5111739Y196593D01*
X5111739Y301495D02*
G01*
X5181843Y196593D01*
X5181843Y301495D02*
G01*
X5181843Y196593D01*
X5214863Y301495D02*
G01*
X5214863Y196593D01*
X5214863Y301495D02*
G01*
X5249915Y301495D01*
X5264901Y296415D01*
X5274807Y286509D01*
X5279887Y276603D01*
X5284713Y261617D01*
X5284713Y236471D01*
X5279887Y221485D01*
X5274807Y211579D01*
X5264901Y201419D01*
X5249915Y196593D01*
X5214863Y196593D01*
X3802877Y362201D02*
G01*
X3792971Y352041D01*
X3787891Y337055D01*
X3787891Y316989D01*
X3792971Y302003D01*
X3802877Y292097D01*
X3812783Y292097D01*
X3822943Y297177D01*
X3827769Y302003D01*
X3832849Y312163D01*
X3843009Y342135D01*
X3847835Y352041D01*
X3852915Y357121D01*
X3862821Y362201D01*
X3877807Y362201D01*
X3887967Y352041D01*
X3892793Y337055D01*
X3892793Y316989D01*
X3887967Y302003D01*
X3877807Y292097D01*
X3787891Y395221D02*
G01*
X3892793Y395221D01*
X3787891Y395221D02*
G01*
X3787891Y430019D01*
X3792971Y445005D01*
X3802877Y455165D01*
X3812783Y459991D01*
X3827769Y465071D01*
X3852915Y465071D01*
X3867901Y459991D01*
X3877807Y455165D01*
X3887967Y445005D01*
X3892793Y430019D01*
X3892793Y395221D01*
X3812783Y649983D02*
G01*
X3802877Y645157D01*
X3792971Y634997D01*
X3787891Y625091D01*
X3787891Y605025D01*
X3792971Y595119D01*
X3802877Y585213D01*
X3812783Y580133D01*
X3827769Y575053D01*
X3852915Y575053D01*
X3867901Y580133D01*
X3877807Y585213D01*
X3887967Y595119D01*
X3892793Y605025D01*
X3892793Y625091D01*
X3887967Y634997D01*
X3877807Y645157D01*
X3867901Y649983D01*
X3822943Y743201D02*
G01*
X3892793Y743201D01*
X3837929Y743201D02*
G01*
X3827769Y733041D01*
X3822943Y723135D01*
X3822943Y708149D01*
X3827769Y697989D01*
X3837929Y688083D01*
X3852915Y683003D01*
X3862821Y683003D01*
X3877807Y688083D01*
X3887967Y697989D01*
X3892793Y708149D01*
X3892793Y723135D01*
X3887967Y733041D01*
X3877807Y743201D01*
X3822943Y776221D02*
G01*
X3892793Y776221D01*
X3852915Y776221D02*
G01*
X3837929Y781047D01*
X3827769Y791207D01*
X3822943Y801113D01*
X3822943Y816099D01*
X3787891Y909063D02*
G01*
X3892793Y909063D01*
X3837929Y909063D02*
G01*
X3827769Y899157D01*
X3822943Y888997D01*
X3822943Y874011D01*
X3827769Y864105D01*
X3837929Y854199D01*
X3852915Y849119D01*
X3862821Y849119D01*
X3877807Y854199D01*
X3887967Y864105D01*
X3892793Y874011D01*
X3892793Y888997D01*
X3887967Y899157D01*
X3877807Y909063D01*
X3787891Y1019045D02*
G01*
X3892793Y1019045D01*
X3787891Y1019045D02*
G01*
X3892793Y1059177D01*
X3787891Y1099055D02*
G01*
X3892793Y1059177D01*
X3787891Y1099055D02*
G01*
X3892793Y1099055D01*
X3822943Y1157221D02*
G01*
X3827769Y1147061D01*
X3837929Y1137155D01*
X3852915Y1132075D01*
X3862821Y1132075D01*
X3877807Y1137155D01*
X3887967Y1147061D01*
X3892793Y1157221D01*
X3892793Y1172207D01*
X3887967Y1182113D01*
X3877807Y1192019D01*
X3862821Y1197099D01*
X3852915Y1197099D01*
X3837929Y1192019D01*
X3827769Y1182113D01*
X3822943Y1172207D01*
X3822943Y1157221D01*
X3787891Y1290063D02*
G01*
X3892793Y1290063D01*
X3837929Y1290063D02*
G01*
X3827769Y1280157D01*
X3822943Y1269997D01*
X3822943Y1255011D01*
X3827769Y1245105D01*
X3837929Y1235199D01*
X3852915Y1230119D01*
X3862821Y1230119D01*
X3877807Y1235199D01*
X3887967Y1245105D01*
X3892793Y1255011D01*
X3892793Y1269997D01*
X3887967Y1280157D01*
X3877807Y1290063D01*
X3822943Y1323083D02*
G01*
X3872981Y1323083D01*
X3887967Y1328163D01*
X3892793Y1338069D01*
X3892793Y1353055D01*
X3887967Y1363215D01*
X3872981Y1378201D01*
X3822943Y1378201D02*
G01*
X3892793Y1378201D01*
X3787891Y1411221D02*
G01*
X3892793Y1411221D01*
X3852915Y1443987D02*
G01*
X3852915Y1504185D01*
X3843009Y1504185D01*
X3832849Y1499105D01*
X3827769Y1494025D01*
X3822943Y1484119D01*
X3822943Y1469133D01*
X3827769Y1458973D01*
X3837929Y1449067D01*
X3852915Y1443987D01*
X3862821Y1443987D01*
X3877807Y1449067D01*
X3887967Y1458973D01*
X3892793Y1469133D01*
X3892793Y1484119D01*
X3887967Y1494025D01*
X3877807Y1504185D01*
D10*
X5571733Y5802111D02*
G01*
X5561319Y5812525D01*
X5545825Y5817605D01*
X5524997Y5817605D01*
X5509503Y5812525D01*
X5499089Y5802111D01*
X5499089Y5791697D01*
X5504169Y5781283D01*
X5509503Y5775949D01*
X5519917Y5770869D01*
X5551159Y5760455D01*
X5561319Y5755375D01*
X5566653Y5750041D01*
X5571733Y5739627D01*
X5571733Y5724133D01*
X5561319Y5713719D01*
X5545825Y5708639D01*
X5524997Y5708639D01*
X5509503Y5713719D01*
X5499089Y5724133D01*
X5606023Y5817605D02*
G01*
X5632185Y5708639D01*
X5658093Y5817605D02*
G01*
X5632185Y5708639D01*
X5658093Y5817605D02*
G01*
X5684001Y5708639D01*
X5709909Y5817605D02*
G01*
X5684001Y5708639D01*
X5744199Y5796777D02*
G01*
X5754613Y5802111D01*
X5770361Y5817605D01*
X5770361Y5708639D01*
D12*
X7024100Y3873489D02*
G01*
X6954758Y3873489D01*
X6940788Y3868917D01*
X6931644Y3859519D01*
X6927072Y3845803D01*
X6927072Y3836659D01*
X6931644Y3822689D01*
X6940788Y3813545D01*
X6954758Y3808719D01*
X7024100Y3808719D01*
X7010130Y3713723D02*
G01*
X7019274Y3722867D01*
X7024100Y3736837D01*
X7024100Y3755379D01*
X7019274Y3769095D01*
X7010130Y3778239D01*
X7000986Y3778239D01*
X6991588Y3773667D01*
X6987016Y3769095D01*
X6982444Y3759951D01*
X6973300Y3732265D01*
X6968474Y3722867D01*
X6963902Y3718295D01*
X6954758Y3713723D01*
X6940788Y3713723D01*
X6931644Y3722867D01*
X6927072Y3736837D01*
X6927072Y3755379D01*
X6931644Y3769095D01*
X6940788Y3778239D01*
X7024100Y3683243D02*
G01*
X6927072Y3683243D01*
X7024100Y3683243D02*
G01*
X7024100Y3641587D01*
X7019274Y3627871D01*
X7014702Y3623299D01*
X7005558Y3618473D01*
X6996414Y3618473D01*
X6987016Y3623299D01*
X6982444Y3627871D01*
X6977872Y3641587D01*
X6977872Y3683243D02*
G01*
X6977872Y3641587D01*
X6973300Y3627871D01*
X6968474Y3623299D01*
X6959330Y3618473D01*
X6945614Y3618473D01*
X6936216Y3623299D01*
X6931644Y3627871D01*
X6927072Y3641587D01*
X6927072Y3683243D01*
D13*
X6010033Y4282180D02*
G01*
X6019177Y4291324D01*
X6023495Y4305040D01*
X6023495Y4323074D01*
X6019177Y4336790D01*
X6010033Y4345934D01*
X6000889Y4345934D01*
X5991745Y4341362D01*
X5987173Y4336790D01*
X5982601Y4327646D01*
X5973711Y4300468D01*
X5969139Y4291324D01*
X5964567Y4286752D01*
X5955423Y4282180D01*
X5941707Y4282180D01*
X5932817Y4291324D01*
X5928245Y4305040D01*
X5928245Y4323074D01*
X5932817Y4336790D01*
X5941707Y4345934D01*
X6023495Y4252208D02*
G01*
X5928245Y4252208D01*
X6023495Y4252208D02*
G01*
X6023495Y4220458D01*
X6019177Y4206742D01*
X6010033Y4197598D01*
X6000889Y4193280D01*
X5987173Y4188708D01*
X5964567Y4188708D01*
X5950851Y4193280D01*
X5941707Y4197598D01*
X5932817Y4206742D01*
X5928245Y4220458D01*
X5928245Y4252208D01*
X6023495Y4122160D02*
G01*
X5928245Y4158736D01*
X6023495Y4122160D02*
G01*
X5928245Y4085838D01*
X5959995Y4145020D02*
G01*
X5959995Y4099554D01*
X5754977Y4282434D02*
G01*
X5764121Y4291324D01*
X5768693Y4305040D01*
X5768693Y4323328D01*
X5764121Y4336790D01*
X5754977Y4345934D01*
X5745833Y4345934D01*
X5736943Y4341362D01*
X5732371Y4336790D01*
X5727799Y4327900D01*
X5718655Y4300468D01*
X5714083Y4291324D01*
X5709511Y4286752D01*
X5700367Y4282434D01*
X5686905Y4282434D01*
X5677761Y4291324D01*
X5673189Y4305040D01*
X5673189Y4323328D01*
X5677761Y4336790D01*
X5686905Y4345934D01*
X5745833Y4184136D02*
G01*
X5754977Y4188708D01*
X5764121Y4197852D01*
X5768693Y4206742D01*
X5768693Y4225030D01*
X5764121Y4234174D01*
X5754977Y4243318D01*
X5745833Y4247890D01*
X5732371Y4252208D01*
X5709511Y4252208D01*
X5695795Y4247890D01*
X5686905Y4243318D01*
X5677761Y4234174D01*
X5673189Y4225030D01*
X5673189Y4206742D01*
X5677761Y4197852D01*
X5686905Y4188708D01*
X5695795Y4184136D01*
X5768693Y4154164D02*
G01*
X5673189Y4154164D01*
X5673189Y4154164D02*
G01*
X5673189Y4099554D01*
X5513633Y4314116D02*
G01*
X5418178Y4314116D01*
X5513633Y4345934D02*
G01*
X5513633Y4282297D01*
X5513633Y4252297D02*
G01*
X5418178Y4188663D01*
X5513633Y4188663D02*
G01*
X5418178Y4252297D01*
X6278554Y4345934D02*
G01*
X6183050Y4345934D01*
X6278554Y4345934D02*
G01*
X6278554Y4314184D01*
X6273982Y4300468D01*
X6264838Y4291324D01*
X6255948Y4286752D01*
X6242232Y4282180D01*
X6219372Y4282180D01*
X6205910Y4286752D01*
X6196766Y4291324D01*
X6187622Y4300468D01*
X6183050Y4314184D01*
X6183050Y4345934D01*
X6278554Y4243064D02*
G01*
X6278554Y4193280D01*
X6242232Y4220458D01*
X6242232Y4206742D01*
X6237660Y4197598D01*
X6233088Y4193280D01*
X6219372Y4188708D01*
X6210482Y4188708D01*
X6196766Y4193280D01*
X6187622Y4202170D01*
X6183050Y4215886D01*
X6183050Y4229602D01*
X6187622Y4243064D01*
X6192194Y4247636D01*
X6201338Y4252208D01*
X6533563Y4345934D02*
G01*
X6438107Y4345934D01*
X6533563Y4345934D02*
G01*
X6533563Y4314116D01*
X6529016Y4300481D01*
X6519925Y4291388D01*
X6510835Y4286844D01*
X6497200Y4282297D01*
X6474472Y4282297D01*
X6460835Y4286844D01*
X6451744Y4291388D01*
X6442654Y4300481D01*
X6438107Y4314116D01*
X6438107Y4345934D01*
X6510835Y4247753D02*
G01*
X6515381Y4247753D01*
X6524472Y4243207D01*
X6529016Y4238663D01*
X6533563Y4229572D01*
X6533563Y4211388D01*
X6529016Y4202297D01*
X6524472Y4197753D01*
X6515381Y4193207D01*
X6506291Y4193207D01*
X6497200Y4197753D01*
X6483563Y4206844D01*
X6438107Y4252297D01*
X6438107Y4188663D01*
X7043630Y4345934D02*
G01*
X6948175Y4345934D01*
X7043630Y4345934D02*
G01*
X7043630Y4314116D01*
X7039084Y4300481D01*
X7029993Y4291388D01*
X7020902Y4286844D01*
X7007268Y4282297D01*
X6984540Y4282297D01*
X6970902Y4286844D01*
X6961812Y4291388D01*
X6952721Y4300481D01*
X6948175Y4314116D01*
X6948175Y4345934D01*
X7043630Y4225025D02*
G01*
X7039084Y4238663D01*
X7025449Y4247753D01*
X7002721Y4252297D01*
X6989084Y4252297D01*
X6966358Y4247753D01*
X6952721Y4238663D01*
X6948175Y4225025D01*
X6948175Y4215935D01*
X6952721Y4202297D01*
X6966358Y4193207D01*
X6989084Y4188663D01*
X7002721Y4188663D01*
X7025449Y4193207D01*
X7039084Y4202297D01*
X7043630Y4215935D01*
X7043630Y4225025D01*
X6788619Y4345934D02*
G01*
X6693115Y4345934D01*
X6788619Y4345934D02*
G01*
X6788619Y4314184D01*
X6784047Y4300468D01*
X6774903Y4291578D01*
X6766013Y4287006D01*
X6752297Y4282434D01*
X6729437Y4282434D01*
X6715975Y4287006D01*
X6706831Y4291578D01*
X6697687Y4300468D01*
X6693115Y4314184D01*
X6693115Y4345934D01*
X6770331Y4252462D02*
G01*
X6774903Y4243318D01*
X6788619Y4229602D01*
X6693115Y4229602D01*
X6036802Y3388349D02*
G01*
X5941298Y3388349D01*
X6036802Y3388349D02*
G01*
X5941298Y3352027D01*
X6036802Y3315705D02*
G01*
X5941298Y3352027D01*
X6036802Y3315705D02*
G01*
X5941298Y3315705D01*
X6036802Y3285733D02*
G01*
X5941298Y3285733D01*
X6023340Y3192007D02*
G01*
X6032230Y3201151D01*
X6036802Y3214613D01*
X6036802Y3232901D01*
X6032230Y3246617D01*
X6023340Y3255507D01*
X6014196Y3255507D01*
X6005052Y3251189D01*
X6000480Y3246617D01*
X5995908Y3237473D01*
X5986764Y3210041D01*
X5982446Y3201151D01*
X5977874Y3196579D01*
X5968730Y3192007D01*
X5955014Y3192007D01*
X5945870Y3201151D01*
X5941298Y3214613D01*
X5941298Y3232901D01*
X5945870Y3246617D01*
X5955014Y3255507D01*
X6036802Y3134603D02*
G01*
X6032230Y3143747D01*
X6023340Y3152891D01*
X6014196Y3157463D01*
X6000480Y3162035D01*
X5977874Y3162035D01*
X5964158Y3157463D01*
X5955014Y3152891D01*
X5945870Y3143747D01*
X5941298Y3134603D01*
X5941298Y3116569D01*
X5945870Y3107425D01*
X5955014Y3098281D01*
X5964158Y3093709D01*
X5977874Y3089137D01*
X6000480Y3089137D01*
X6014196Y3093709D01*
X6023340Y3098281D01*
X6032230Y3107425D01*
X6036802Y3116569D01*
X6036802Y3134603D01*
X5769340Y3280907D02*
G01*
X5778230Y3290051D01*
X5782802Y3303767D01*
X5782802Y3322055D01*
X5778230Y3335517D01*
X5769340Y3344661D01*
X5760196Y3344661D01*
X5751052Y3340089D01*
X5746480Y3335517D01*
X5741908Y3326373D01*
X5732764Y3299195D01*
X5728446Y3290051D01*
X5723874Y3285479D01*
X5714730Y3280907D01*
X5701014Y3280907D01*
X5691870Y3290051D01*
X5687298Y3303767D01*
X5687298Y3322055D01*
X5691870Y3335517D01*
X5701014Y3344661D01*
X5760196Y3182863D02*
G01*
X5769340Y3187435D01*
X5778230Y3196579D01*
X5782802Y3205469D01*
X5782802Y3223757D01*
X5778230Y3232901D01*
X5769340Y3242045D01*
X5760196Y3246363D01*
X5746480Y3250935D01*
X5723874Y3250935D01*
X5710158Y3246363D01*
X5701014Y3242045D01*
X5691870Y3232901D01*
X5687298Y3223757D01*
X5687298Y3205469D01*
X5691870Y3196579D01*
X5701014Y3187435D01*
X5710158Y3182863D01*
X5782802Y3152891D02*
G01*
X5687298Y3152891D01*
X5782802Y3089137D02*
G01*
X5719302Y3152891D01*
X5741908Y3130031D02*
G01*
X5687298Y3089137D01*
X5528802Y3246363D02*
G01*
X5433298Y3246363D01*
X5528802Y3246363D02*
G01*
X5528802Y3205469D01*
X5524230Y3191753D01*
X5519658Y3187181D01*
X5510768Y3182609D01*
X5501624Y3182609D01*
X5492480Y3187181D01*
X5487908Y3191753D01*
X5483336Y3205469D01*
X5483336Y3246363D01*
X5483336Y3214613D02*
G01*
X5433298Y3182609D01*
X5528802Y3152637D02*
G01*
X5433298Y3089137D01*
X5528802Y3089137D02*
G01*
X5433298Y3152637D01*
X6290802Y3388349D02*
G01*
X6195298Y3388349D01*
X6290802Y3388349D02*
G01*
X6195298Y3352027D01*
X6290802Y3315705D02*
G01*
X6195298Y3352027D01*
X6290802Y3315705D02*
G01*
X6195298Y3315705D01*
X6290802Y3258301D02*
G01*
X6286230Y3267445D01*
X6277340Y3276589D01*
X6268196Y3281161D01*
X6254480Y3285733D01*
X6231874Y3285733D01*
X6218158Y3281161D01*
X6209014Y3276589D01*
X6199870Y3267445D01*
X6195298Y3258301D01*
X6195298Y3240267D01*
X6199870Y3231123D01*
X6209014Y3221979D01*
X6218158Y3217407D01*
X6231874Y3212835D01*
X6254480Y3212835D01*
X6268196Y3217407D01*
X6277340Y3221979D01*
X6286230Y3231123D01*
X6290802Y3240267D01*
X6290802Y3258301D01*
X6277340Y3119363D02*
G01*
X6286230Y3128253D01*
X6290802Y3141969D01*
X6290802Y3160257D01*
X6286230Y3173719D01*
X6277340Y3182863D01*
X6268196Y3182863D01*
X6259052Y3178291D01*
X6254480Y3173719D01*
X6249908Y3164829D01*
X6240764Y3137397D01*
X6236446Y3128253D01*
X6231874Y3123681D01*
X6222730Y3119363D01*
X6209014Y3119363D01*
X6199870Y3128253D01*
X6195298Y3141969D01*
X6195298Y3160257D01*
X6199870Y3173719D01*
X6209014Y3182863D01*
X6290802Y3089137D02*
G01*
X6195298Y3089137D01*
X6544802Y3340089D02*
G01*
X6544802Y3290051D01*
X6508480Y3317483D01*
X6508480Y3303767D01*
X6503908Y3294623D01*
X6499336Y3290051D01*
X6485874Y3285479D01*
X6476730Y3285479D01*
X6463014Y3290051D01*
X6453870Y3299195D01*
X6449298Y3312911D01*
X6449298Y3326627D01*
X6453870Y3340089D01*
X6458442Y3344661D01*
X6467586Y3349233D01*
X6544802Y3255507D02*
G01*
X6449298Y3219185D01*
X6544802Y3182863D02*
G01*
X6449298Y3219185D01*
X6544802Y3143747D02*
G01*
X6544802Y3093709D01*
X6508480Y3121141D01*
X6508480Y3107425D01*
X6503908Y3098281D01*
X6499336Y3093709D01*
X6485874Y3089137D01*
X6476730Y3089137D01*
X6463014Y3093709D01*
X6453870Y3102853D01*
X6449298Y3116569D01*
X6449298Y3130031D01*
X6453870Y3143747D01*
X6458442Y3148319D01*
X6467586Y3152891D01*
X7052802Y3200897D02*
G01*
X7052802Y3246363D01*
X7011908Y3250935D01*
X7016480Y3246363D01*
X7021052Y3232901D01*
X7021052Y3219185D01*
X7016480Y3205469D01*
X7007336Y3196325D01*
X6993874Y3191753D01*
X6984730Y3191753D01*
X6971014Y3196325D01*
X6961870Y3205469D01*
X6957298Y3219185D01*
X6957298Y3232901D01*
X6961870Y3246363D01*
X6966442Y3250935D01*
X6975586Y3255507D01*
X7052802Y3161781D02*
G01*
X6957298Y3125459D01*
X7052802Y3089137D02*
G01*
X6957298Y3125459D01*
X6776196Y3276589D02*
G01*
X6785340Y3280907D01*
X6794230Y3290051D01*
X6798802Y3299195D01*
X6798802Y3317483D01*
X6794230Y3326373D01*
X6785340Y3335517D01*
X6776196Y3340089D01*
X6762480Y3344661D01*
X6739874Y3344661D01*
X6726158Y3340089D01*
X6717014Y3335517D01*
X6707870Y3326373D01*
X6703298Y3317483D01*
X6703298Y3299195D01*
X6707870Y3290051D01*
X6717014Y3280907D01*
X6726158Y3276589D01*
X6739874Y3276589D01*
X6739874Y3299195D02*
G01*
X6739874Y3276589D01*
X6798802Y3246363D02*
G01*
X6703298Y3246363D01*
X6798802Y3246363D02*
G01*
X6703298Y3182863D01*
X6798802Y3182863D02*
G01*
X6703298Y3182863D01*
X6798802Y3152891D02*
G01*
X6703298Y3152891D01*
X6798802Y3152891D02*
G01*
X6798802Y3121141D01*
X6794230Y3107425D01*
X6785340Y3098281D01*
X6776196Y3093709D01*
X6762480Y3089137D01*
X6739874Y3089137D01*
X6726158Y3093709D01*
X6717014Y3098281D01*
X6707870Y3107425D01*
X6703298Y3121141D01*
X6703298Y3152891D01*
D14*
X6645643Y4114538D02*
G01*
X6654533Y4123682D01*
X6659105Y4137398D01*
X6659105Y4155686D01*
X6654533Y4169148D01*
X6645643Y4178292D01*
X6636499Y4178292D01*
X6627355Y4173720D01*
X6622783Y4169148D01*
X6618211Y4160004D01*
X6609067Y4132826D01*
X6604749Y4123682D01*
X6600177Y4119110D01*
X6591033Y4114538D01*
X6577317Y4114538D01*
X6568173Y4123682D01*
X6563601Y4137398D01*
X6563601Y4155686D01*
X6568173Y4169148D01*
X6577317Y4178292D01*
X6600177Y4084566D02*
G01*
X6600177Y4030210D01*
X6609067Y4030210D01*
X6618211Y4034528D01*
X6622783Y4039100D01*
X6627355Y4048244D01*
X6627355Y4061960D01*
X6622783Y4071104D01*
X6613639Y4079994D01*
X6600177Y4084566D01*
X6591033Y4084566D01*
X6577317Y4079994D01*
X6568173Y4071104D01*
X6563601Y4061960D01*
X6563601Y4048244D01*
X6568173Y4039100D01*
X6577317Y4030210D01*
X6600177Y3999984D02*
G01*
X6600177Y3945628D01*
X6609067Y3945628D01*
X6618211Y3950200D01*
X6622783Y3954772D01*
X6627355Y3963662D01*
X6627355Y3977378D01*
X6622783Y3986522D01*
X6613639Y3995666D01*
X6600177Y3999984D01*
X6591033Y3999984D01*
X6577317Y3995666D01*
X6568173Y3986522D01*
X6563601Y3977378D01*
X6563601Y3963662D01*
X6568173Y3954772D01*
X6577317Y3945628D01*
X6600177Y3915656D02*
G01*
X6600177Y3861046D01*
X6609067Y3861046D01*
X6618211Y3865618D01*
X6622783Y3870190D01*
X6627355Y3879080D01*
X6627355Y3892796D01*
X6622783Y3901940D01*
X6613639Y3911084D01*
X6600177Y3915656D01*
X6591033Y3915656D01*
X6577317Y3911084D01*
X6568173Y3901940D01*
X6563601Y3892796D01*
X6563601Y3879080D01*
X6568173Y3870190D01*
X6577317Y3861046D01*
X6659105Y3776464D02*
G01*
X6563601Y3776464D01*
X6613639Y3776464D02*
G01*
X6622783Y3785608D01*
X6627355Y3794752D01*
X6627355Y3808214D01*
X6622783Y3817358D01*
X6613639Y3826502D01*
X6600177Y3831074D01*
X6591033Y3831074D01*
X6577317Y3826502D01*
X6568173Y3817358D01*
X6563601Y3808214D01*
X6563601Y3794752D01*
X6568173Y3785608D01*
X6577317Y3776464D01*
X6613639Y3696454D02*
G01*
X6622783Y3701026D01*
X6627355Y3714742D01*
X6627355Y3728204D01*
X6622783Y3741920D01*
X6613639Y3746492D01*
X6604749Y3741920D01*
X6600177Y3732776D01*
X6595605Y3710170D01*
X6591033Y3701026D01*
X6581889Y3696454D01*
X6577317Y3696454D01*
X6568173Y3701026D01*
X6563601Y3714742D01*
X6563601Y3728204D01*
X6568173Y3741920D01*
X6577317Y3746492D01*
X6659105Y3652766D02*
G01*
X6581889Y3652766D01*
X6568173Y3648194D01*
X6563601Y3639304D01*
X6563601Y3630160D01*
X6627355Y3666482D02*
G01*
X6627355Y3634732D01*
X6627355Y3600188D02*
G01*
X6581889Y3600188D01*
X6568173Y3595616D01*
X6563601Y3586472D01*
X6563601Y3572756D01*
X6568173Y3563866D01*
X6581889Y3550150D01*
X6627355Y3550150D02*
G01*
X6563601Y3550150D01*
X6659105Y3465568D02*
G01*
X6563601Y3465568D01*
X6613639Y3465568D02*
G01*
X6622783Y3474712D01*
X6627355Y3483856D01*
X6627355Y3497318D01*
X6622783Y3506462D01*
X6613639Y3515606D01*
X6600177Y3520178D01*
X6591033Y3520178D01*
X6577317Y3515606D01*
X6568173Y3506462D01*
X6563601Y3497318D01*
X6563601Y3483856D01*
X6568173Y3474712D01*
X6577317Y3465568D01*
X6659105Y3435596D02*
G01*
X6654533Y3431024D01*
X6659105Y3426452D01*
X6663677Y3431024D01*
X6659105Y3435596D01*
X6627355Y3431024D02*
G01*
X6563601Y3431024D01*
X6627355Y3373620D02*
G01*
X6622783Y3382764D01*
X6613639Y3391908D01*
X6600177Y3396480D01*
X6591033Y3396480D01*
X6577317Y3391908D01*
X6568173Y3382764D01*
X6563601Y3373620D01*
X6563601Y3360158D01*
X6568173Y3351014D01*
X6577317Y3341870D01*
X6591033Y3337298D01*
X6600177Y3337298D01*
X6613639Y3341870D01*
X6622783Y3351014D01*
X6627355Y3360158D01*
X6627355Y3373620D01*
D13*
X6387071Y3975094D02*
G01*
X6243815Y3879590D01*
X6387071Y3879590D02*
G01*
X6243815Y3975094D01*
X6387071Y3834632D02*
G01*
X6243815Y3834632D01*
X6387071Y3735064D02*
G01*
X6243815Y3789674D01*
X6387071Y3735064D02*
G01*
X6243815Y3680454D01*
X6291567Y3769100D02*
G01*
X6291567Y3701028D01*
X6387071Y3594602D02*
G01*
X6380213Y3608318D01*
X6366497Y3622034D01*
X6353035Y3628638D01*
X6332461Y3635496D01*
X6298425Y3635496D01*
X6277851Y3628638D01*
X6264389Y3622034D01*
X6250673Y3608318D01*
X6243815Y3594602D01*
X6243815Y3567424D01*
X6250673Y3553708D01*
X6264389Y3539992D01*
X6277851Y3533388D01*
X6298425Y3526530D01*
X6332461Y3526530D01*
X6353035Y3533388D01*
X6366497Y3539992D01*
X6380213Y3553708D01*
X6387071Y3567424D01*
X6387071Y3594602D01*
D15*
X7153147Y6235700D02*
G01*
X7153147Y6173978D01*
X7153147Y6235700D02*
G01*
X7179563Y6235700D01*
X7188454Y6232905D01*
X7191502Y6229857D01*
X7194295Y6224015D01*
X7194295Y6218173D01*
X7191502Y6212331D01*
X7188454Y6209284D01*
X7179563Y6206236D01*
X7153147Y6206236D01*
X7173722Y6206236D02*
G01*
X7194295Y6173978D01*
X7213854Y6235700D02*
G01*
X7213854Y6173978D01*
X7213854Y6235700D02*
G01*
X7252208Y6235700D01*
X7213854Y6206236D02*
G01*
X7237475Y6206236D01*
X7213854Y6173978D02*
G01*
X7252208Y6173978D01*
X7271765Y6235700D02*
G01*
X7271765Y6173978D01*
X7271765Y6235700D02*
G01*
X7310120Y6235700D01*
X7271765Y6206236D02*
G01*
X7295388Y6206236D01*
X7344156Y6218173D02*
G01*
X7344156Y6182613D01*
X7329424Y6209284D02*
G01*
X7358888Y6191504D01*
X7358888Y6209284D02*
G01*
X7329424Y6191504D01*
X7393177Y6218173D02*
G01*
X7393177Y6182613D01*
X7378445Y6209284D02*
G01*
X7407909Y6191504D01*
X7407909Y6209284D02*
G01*
X7378445Y6191504D01*
X980947Y215900D02*
G01*
X980947Y154178D01*
X980947Y215900D02*
G01*
X1007363Y215900D01*
X1016254Y213105D01*
X1019302Y210057D01*
X1022095Y204215D01*
X1022095Y198373D01*
X1019302Y192531D01*
X1016254Y189484D01*
X1007363Y186436D01*
X980947Y186436D01*
X1001521Y186436D02*
G01*
X1022095Y154178D01*
X1041654Y215900D02*
G01*
X1041654Y154178D01*
X1041654Y215900D02*
G01*
X1080007Y215900D01*
X1041654Y186436D02*
G01*
X1065276Y186436D01*
X1041654Y154178D02*
G01*
X1080007Y154178D01*
X1099565Y215900D02*
G01*
X1099565Y154178D01*
X1099565Y215900D02*
G01*
X1137920Y215900D01*
X1099565Y186436D02*
G01*
X1123187Y186436D01*
X1171955Y198373D02*
G01*
X1171955Y162813D01*
X1157223Y189484D02*
G01*
X1186687Y171704D01*
X1186687Y189484D02*
G01*
X1157223Y171704D01*
X1220978Y198373D02*
G01*
X1220978Y162813D01*
X1206245Y189484D02*
G01*
X1235710Y171704D01*
X1235710Y189484D02*
G01*
X1206245Y171704D01*
D17*
X6756400Y5676900D02*
G01*
X6756400Y5168900D01*
X6502400Y5168900D01*
X6502400Y5676900D01*
X6756400Y5676900D01*
X6275387Y1914497D02*
G01*
X6475387Y1914497D01*
X6475387Y1114498D01*
X6275387Y1114498D01*
X6275387Y1914497D01*
X6262687Y860397D02*
G01*
X6462687Y860397D01*
X6462687Y60398D01*
X6262687Y60398D01*
X6262687Y860397D01*
X1006304Y5777895D02*
G01*
X4556310Y5777895D01*
X4556310Y2407899D01*
X1006304Y2407899D01*
X1006304Y5777895D01*
X1056292Y5242895D02*
G01*
X4506297Y5242895D01*
X4506297Y2942899D01*
X1056292Y2942899D01*
X1056292Y5242895D01*
X3657589Y1790697D02*
G01*
X5657585Y1790697D01*
X5657585Y-9298D01*
X3657589Y-9298D01*
X3657589Y1790697D01*
X4940289Y5670489D02*
G01*
X6100282Y5670489D01*
X6100282Y5270489D01*
X4940289Y5270489D01*
X4940289Y5670489D01*
D18*
X7124684Y4610089D02*
G01*
X7124684Y4356089D01*
X5346684Y4356089D01*
X5346684Y4610089D01*
X7124684Y4610089D01*
D17*
X7284882Y3035289D02*
G01*
X7284882Y4406889D01*
X5174726Y4406889D02*
G01*
X5174726Y3035289D01*
X7081682Y4610089D02*
G01*
X5388086Y4610089D01*
X5388086Y2832089D02*
G01*
X7081682Y2832089D01*
D18*
X5346684Y2832089D02*
G01*
X5346684Y3086089D01*
X7124684Y3086089D01*
X7124684Y2832089D01*
X5346684Y2832089D01*
D17*
X6692884Y4178289D02*
G01*
X7429484Y4178289D01*
X7429484Y3267014D01*
X6692884Y3267014D01*
X6692884Y4178289D01*
G75*
G01*
X7081683Y2832090D02*
G03*
X7284883Y3035290I0J203200D01*
G75*
G01*
X7284883Y4406890D02*
G03*
X7081683Y4610090I-203200J0D01*
G75*
G01*
X5174727Y3035290D02*
G03*
X5388087Y2832090I208269J5068D01*
G75*
G01*
X5388087Y4610090D02*
G03*
X5174727Y4406890I-5091J-208269D01*
M02*
