G04 Layer: BottomLayer*
G04 EasyEDA v6.5.57, 2026-08-19 02:44:36*
G04 21fc414544634538bdade3c9437cd426,47083fb59e924f2e982a52276fdf08c8,10*
G04 Gerber Generator version 0.2*
G04 Scale: 100 percent, Rotated: No, Reflected: No *
G04 Dimensions in millimeters *
G04 leading zeros omitted , absolute positions ,4 integer and 5 decimal *
%FSLAX45Y45*%
%MOMM*%

%AMMACRO1*4,1,4,0.762,1.651,0.762,-1.651,-0.762,-1.651,-0.762,1.651,0.762,1.651,0*%
%ADD10C,0.3100*%
%ADD11C,1.8000*%
%ADD12R,1.8000X1.8000*%
%ADD13C,3.0000*%
%ADD14R,2.0000X2.0000*%
%ADD15C,2.0000*%
%ADD16C,4.5000*%
%ADD17C,1.6510*%
%ADD18C,1.5240*%
%ADD19C,0.0106*%
%ADD20MACRO1*%
%ADD21C,0.7000*%
%ADD22C,2.2000*%

%LPD*%
D10*
X5770298Y5470499D02*
G01*
X6362702Y4878095D01*
X6362702Y3594100D01*
X6997702Y2959100D01*
X6235702Y4483100D02*
G01*
X6235702Y3304920D01*
X6125060Y3194278D01*
X6125060Y2760573D01*
X5537202Y2172715D01*
X5537202Y1524000D01*
X6235702Y2959100D02*
G01*
X6235702Y2702737D01*
X5677766Y2144801D01*
X5677766Y1156563D01*
X5537202Y1016000D01*
X5981702Y2959100D02*
G01*
X5981702Y2871190D01*
X5414215Y2303703D01*
X5414215Y884986D01*
X5537202Y762000D01*
X6489702Y2959100D02*
G01*
X6489702Y1928799D01*
X6375402Y1814499D01*
X6362702Y760399D02*
G01*
X6181549Y941552D01*
X6181549Y1620646D01*
X6375402Y1814499D01*
X6362702Y160401D02*
G01*
X6550510Y348208D01*
X6550510Y1039393D01*
X6375402Y1214501D01*
X6743702Y2660827D02*
G01*
X7048019Y2660827D01*
X7118250Y2731058D01*
X7118250Y4807051D01*
X6629402Y5295900D01*
X6375402Y1214501D02*
G01*
X6743702Y1582801D01*
X6743702Y2660827D01*
X6743702Y2660827D02*
G01*
X6743702Y2959100D01*
D11*
G01*
X6629400Y5295900D03*
D12*
G01*
X6629400Y5549900D03*
D13*
G01*
X6375387Y1214498D03*
G01*
X6375387Y1814497D03*
G01*
X6362687Y160398D03*
G01*
X6362687Y760397D03*
D14*
G01*
X2400307Y5647898D03*
D15*
G01*
X2654307Y5647872D03*
G01*
X2908307Y5647872D03*
G01*
X3162307Y5647872D03*
D16*
G01*
X1256291Y5527883D03*
G01*
X4306298Y5527883D03*
G01*
X1256291Y2657886D03*
G01*
X4306298Y2657886D03*
D17*
G01*
X5537189Y253997D03*
G01*
X5537189Y507997D03*
G01*
X5537189Y761997D03*
G01*
X5537189Y1015997D03*
G01*
X5537189Y1269997D03*
G01*
X5537189Y1523997D03*
D18*
G01*
X5520298Y5470489D03*
G01*
X5276281Y5470489D03*
G01*
X5770285Y5470489D03*
G36*
X7073884Y4470389D02*
G01*
X7073790Y4466592D01*
X7073506Y4462802D01*
X7073033Y4459033D01*
X7072373Y4455292D01*
X7071527Y4451586D01*
X7070498Y4447928D01*
X7069289Y4444326D01*
X7067900Y4440791D01*
X7066338Y4437326D01*
X7064606Y4433945D01*
X7062706Y4430656D01*
X7060643Y4427463D01*
X7058426Y4424380D01*
X7056056Y4421408D01*
X7053544Y4418561D01*
X7050890Y4415840D01*
X7048106Y4413257D01*
X7045195Y4410814D01*
X7042165Y4408520D01*
X7039025Y4406379D01*
X7035784Y4404398D01*
X7032447Y4402581D01*
X7029025Y4400933D01*
X7025523Y4399457D01*
X7021954Y4398157D01*
X7018322Y4397037D01*
X7014641Y4396099D01*
X7010915Y4395348D01*
X7007158Y4394781D01*
X7003379Y4394403D01*
X6999584Y4394212D01*
X6995784Y4394212D01*
X6991990Y4394403D01*
X6988210Y4394781D01*
X6984453Y4395348D01*
X6980727Y4396099D01*
X6977047Y4397037D01*
X6973415Y4398157D01*
X6969846Y4399457D01*
X6966343Y4400933D01*
X6962922Y4402581D01*
X6959584Y4404398D01*
X6956343Y4406379D01*
X6953204Y4408520D01*
X6950174Y4410814D01*
X6947263Y4413257D01*
X6944479Y4415840D01*
X6941825Y4418561D01*
X6939313Y4421408D01*
X6936943Y4424380D01*
X6934725Y4427463D01*
X6932663Y4430656D01*
X6930763Y4433945D01*
X6929031Y4437326D01*
X6927468Y4440791D01*
X6926079Y4444326D01*
X6924870Y4447928D01*
X6923841Y4451586D01*
X6922996Y4455292D01*
X6922335Y4459033D01*
X6921863Y4462802D01*
X6921578Y4466592D01*
X6921484Y4470389D01*
X6921484Y4673589D01*
X6921578Y4677387D01*
X6921863Y4681176D01*
X6922335Y4683749D01*
X6922996Y4688687D01*
X6923841Y4692393D01*
X6924870Y4696051D01*
X6926079Y4699652D01*
X6927468Y4703188D01*
X6929031Y4706653D01*
X6930763Y4710033D01*
X6932663Y4713323D01*
X6934725Y4716515D01*
X6936943Y4719599D01*
X6939313Y4722571D01*
X6941825Y4725418D01*
X6944479Y4728138D01*
X6947263Y4730722D01*
X6950174Y4733165D01*
X6953204Y4735459D01*
X6956343Y4737600D01*
X6959584Y4739581D01*
X6962922Y4741397D01*
X6966343Y4743046D01*
X6969846Y4744521D01*
X6973415Y4745822D01*
X6977047Y4746942D01*
X6980727Y4747879D01*
X6984453Y4748631D01*
X6988210Y4749198D01*
X6991990Y4749576D01*
X6995784Y4749766D01*
X6999584Y4749766D01*
X7003379Y4749576D01*
X7007158Y4749198D01*
X7010915Y4748631D01*
X7014641Y4747879D01*
X7018322Y4746942D01*
X7021954Y4745822D01*
X7025523Y4744521D01*
X7029025Y4743046D01*
X7032447Y4741397D01*
X7035784Y4739581D01*
X7039025Y4737600D01*
X7042165Y4735459D01*
X7045195Y4733165D01*
X7048106Y4730722D01*
X7050890Y4728138D01*
X7053544Y4725418D01*
X7056056Y4722571D01*
X7058426Y4719599D01*
X7060643Y4716515D01*
X7062706Y4713323D01*
X7064606Y4710033D01*
X7066338Y4706653D01*
X7067900Y4703188D01*
X7069289Y4699652D01*
X7070498Y4696051D01*
X7071527Y4692393D01*
X7072373Y4688687D01*
X7073033Y4684946D01*
X7073506Y4681176D01*
X7073790Y4677387D01*
X7073884Y4673589D01*
G37*
G36*
X6819884Y4470389D02*
G01*
X6819790Y4466592D01*
X6819506Y4462802D01*
X6819033Y4459033D01*
X6818373Y4455292D01*
X6817527Y4451586D01*
X6816498Y4447928D01*
X6815289Y4444326D01*
X6813900Y4440791D01*
X6812338Y4437326D01*
X6810606Y4433945D01*
X6808706Y4430656D01*
X6806643Y4427463D01*
X6804426Y4424380D01*
X6802056Y4421408D01*
X6799544Y4418561D01*
X6796890Y4415840D01*
X6794106Y4413257D01*
X6791195Y4410814D01*
X6788165Y4408520D01*
X6785025Y4406379D01*
X6781784Y4404398D01*
X6778447Y4402581D01*
X6775025Y4400933D01*
X6771523Y4399457D01*
X6767954Y4398157D01*
X6764322Y4397037D01*
X6760641Y4396099D01*
X6756915Y4395348D01*
X6753158Y4394781D01*
X6749379Y4394403D01*
X6745584Y4394212D01*
X6741784Y4394212D01*
X6737990Y4394403D01*
X6734210Y4394781D01*
X6730453Y4395348D01*
X6726727Y4396099D01*
X6723047Y4397037D01*
X6719415Y4398157D01*
X6715846Y4399457D01*
X6712343Y4400933D01*
X6708922Y4402581D01*
X6705584Y4404398D01*
X6702343Y4406379D01*
X6699204Y4408520D01*
X6696174Y4410814D01*
X6693263Y4413257D01*
X6690479Y4415840D01*
X6687825Y4418561D01*
X6685313Y4421408D01*
X6682943Y4424380D01*
X6680725Y4427463D01*
X6678663Y4430656D01*
X6676763Y4433945D01*
X6675031Y4437326D01*
X6673468Y4440791D01*
X6672079Y4444326D01*
X6670870Y4447928D01*
X6669841Y4451586D01*
X6668996Y4455292D01*
X6668335Y4459033D01*
X6667863Y4462802D01*
X6667578Y4466592D01*
X6667484Y4470389D01*
X6667484Y4673589D01*
X6667578Y4677387D01*
X6667863Y4681176D01*
X6668335Y4683749D01*
X6668996Y4688687D01*
X6669841Y4692393D01*
X6670870Y4696051D01*
X6672079Y4699652D01*
X6673468Y4703188D01*
X6675031Y4706653D01*
X6676763Y4710033D01*
X6678663Y4713323D01*
X6680725Y4716515D01*
X6682943Y4719599D01*
X6685313Y4722571D01*
X6687825Y4725418D01*
X6690479Y4728138D01*
X6693263Y4730722D01*
X6696174Y4733165D01*
X6699204Y4735459D01*
X6702343Y4737600D01*
X6705584Y4739581D01*
X6708922Y4741397D01*
X6712343Y4743046D01*
X6715846Y4744521D01*
X6719415Y4745822D01*
X6723047Y4746942D01*
X6726727Y4747879D01*
X6730453Y4748631D01*
X6734210Y4749198D01*
X6737990Y4749576D01*
X6741784Y4749766D01*
X6745584Y4749766D01*
X6749379Y4749576D01*
X6753158Y4749198D01*
X6756915Y4748631D01*
X6760641Y4747879D01*
X6764322Y4746942D01*
X6767954Y4745822D01*
X6771523Y4744521D01*
X6775025Y4743046D01*
X6778447Y4741397D01*
X6781784Y4739581D01*
X6785025Y4737600D01*
X6788165Y4735459D01*
X6791195Y4733165D01*
X6794106Y4730722D01*
X6796890Y4728138D01*
X6799544Y4725418D01*
X6802056Y4722571D01*
X6804426Y4719599D01*
X6806643Y4716515D01*
X6808706Y4713323D01*
X6810606Y4710033D01*
X6812338Y4706653D01*
X6813900Y4703188D01*
X6815289Y4699652D01*
X6816498Y4696051D01*
X6817527Y4692393D01*
X6818373Y4688687D01*
X6819033Y4684946D01*
X6819506Y4681176D01*
X6819790Y4677387D01*
X6819884Y4673589D01*
G37*
G36*
X6565884Y4470389D02*
G01*
X6565790Y4466592D01*
X6565506Y4462802D01*
X6565033Y4459033D01*
X6564373Y4455292D01*
X6563527Y4451586D01*
X6562498Y4447928D01*
X6561289Y4444326D01*
X6559900Y4440791D01*
X6558338Y4437326D01*
X6556606Y4433945D01*
X6554706Y4430656D01*
X6552643Y4427463D01*
X6550426Y4424380D01*
X6548056Y4421408D01*
X6545544Y4418561D01*
X6542890Y4415840D01*
X6540106Y4413257D01*
X6537195Y4410814D01*
X6534165Y4408520D01*
X6531025Y4406379D01*
X6527784Y4404398D01*
X6524447Y4402581D01*
X6521025Y4400933D01*
X6517523Y4399457D01*
X6513954Y4398157D01*
X6510322Y4397037D01*
X6506641Y4396099D01*
X6502915Y4395348D01*
X6499158Y4394781D01*
X6495379Y4394403D01*
X6491584Y4394212D01*
X6487784Y4394212D01*
X6483990Y4394403D01*
X6480210Y4394781D01*
X6476453Y4395348D01*
X6472727Y4396099D01*
X6469047Y4397037D01*
X6465415Y4398157D01*
X6461846Y4399457D01*
X6458343Y4400933D01*
X6454922Y4402581D01*
X6451584Y4404398D01*
X6448343Y4406379D01*
X6445204Y4408520D01*
X6442174Y4410814D01*
X6439263Y4413257D01*
X6436479Y4415840D01*
X6433825Y4418561D01*
X6431313Y4421408D01*
X6428943Y4424380D01*
X6426725Y4427463D01*
X6424663Y4430656D01*
X6422763Y4433945D01*
X6421031Y4437326D01*
X6419468Y4440791D01*
X6418079Y4444326D01*
X6416870Y4447928D01*
X6415841Y4451586D01*
X6414996Y4455292D01*
X6414335Y4459033D01*
X6413863Y4462802D01*
X6413578Y4466592D01*
X6413484Y4470389D01*
X6413484Y4673589D01*
X6413578Y4677387D01*
X6413863Y4681176D01*
X6414335Y4683749D01*
X6414996Y4688687D01*
X6415841Y4692393D01*
X6416870Y4696051D01*
X6418079Y4699652D01*
X6419468Y4703188D01*
X6421031Y4706653D01*
X6422763Y4710033D01*
X6424663Y4713323D01*
X6426725Y4716515D01*
X6428943Y4719599D01*
X6431313Y4722571D01*
X6433825Y4725418D01*
X6436479Y4728138D01*
X6439263Y4730722D01*
X6442174Y4733165D01*
X6445204Y4735459D01*
X6448343Y4737600D01*
X6451584Y4739581D01*
X6454922Y4741397D01*
X6458343Y4743046D01*
X6461846Y4744521D01*
X6465415Y4745822D01*
X6469047Y4746942D01*
X6472727Y4747879D01*
X6476453Y4748631D01*
X6480210Y4749198D01*
X6483990Y4749576D01*
X6487784Y4749766D01*
X6491584Y4749766D01*
X6495379Y4749576D01*
X6499158Y4749198D01*
X6502915Y4748631D01*
X6506641Y4747879D01*
X6510322Y4746942D01*
X6513954Y4745822D01*
X6517523Y4744521D01*
X6521025Y4743046D01*
X6524447Y4741397D01*
X6527784Y4739581D01*
X6531025Y4737600D01*
X6534165Y4735459D01*
X6537195Y4733165D01*
X6540106Y4730722D01*
X6542890Y4728138D01*
X6545544Y4725418D01*
X6548056Y4722571D01*
X6550426Y4719599D01*
X6552643Y4716515D01*
X6554706Y4713323D01*
X6556606Y4710033D01*
X6558338Y4706653D01*
X6559900Y4703188D01*
X6561289Y4699652D01*
X6562498Y4696051D01*
X6563527Y4692393D01*
X6564373Y4688687D01*
X6565033Y4684946D01*
X6565506Y4681176D01*
X6565790Y4677387D01*
X6565884Y4673589D01*
G37*
G36*
X6311884Y4470389D02*
G01*
X6311790Y4466592D01*
X6311506Y4462802D01*
X6311033Y4459033D01*
X6310373Y4455292D01*
X6309527Y4451586D01*
X6308498Y4447928D01*
X6307289Y4444326D01*
X6305900Y4440791D01*
X6304338Y4437326D01*
X6302606Y4433945D01*
X6300706Y4430656D01*
X6298643Y4427463D01*
X6296426Y4424380D01*
X6294056Y4421408D01*
X6291544Y4418561D01*
X6288890Y4415840D01*
X6286106Y4413257D01*
X6283195Y4410814D01*
X6280165Y4408520D01*
X6277025Y4406379D01*
X6273784Y4404398D01*
X6270447Y4402581D01*
X6267025Y4400933D01*
X6263523Y4399457D01*
X6259954Y4398157D01*
X6256322Y4397037D01*
X6252641Y4396099D01*
X6248915Y4395348D01*
X6245158Y4394781D01*
X6241379Y4394403D01*
X6237584Y4394212D01*
X6233784Y4394212D01*
X6229990Y4394403D01*
X6226210Y4394781D01*
X6222453Y4395348D01*
X6218727Y4396099D01*
X6215047Y4397037D01*
X6211415Y4398157D01*
X6207846Y4399457D01*
X6204343Y4400933D01*
X6200922Y4402581D01*
X6197584Y4404398D01*
X6194343Y4406379D01*
X6191204Y4408520D01*
X6188174Y4410814D01*
X6185263Y4413257D01*
X6182479Y4415840D01*
X6179825Y4418561D01*
X6177313Y4421408D01*
X6174943Y4424380D01*
X6172725Y4427463D01*
X6170663Y4430656D01*
X6168763Y4433945D01*
X6167031Y4437326D01*
X6165468Y4440791D01*
X6164079Y4444326D01*
X6162870Y4447928D01*
X6161841Y4451586D01*
X6160996Y4455292D01*
X6160335Y4459033D01*
X6159863Y4462802D01*
X6159578Y4466592D01*
X6159484Y4470389D01*
X6159484Y4673589D01*
X6159578Y4677387D01*
X6159863Y4681176D01*
X6160335Y4683749D01*
X6160996Y4688687D01*
X6161841Y4692393D01*
X6162870Y4696051D01*
X6164079Y4699652D01*
X6165468Y4703188D01*
X6167031Y4706653D01*
X6168763Y4710033D01*
X6170663Y4713323D01*
X6172725Y4716515D01*
X6174943Y4719599D01*
X6177313Y4722571D01*
X6179825Y4725418D01*
X6182479Y4728138D01*
X6185263Y4730722D01*
X6188174Y4733165D01*
X6191204Y4735459D01*
X6194343Y4737600D01*
X6197584Y4739581D01*
X6200922Y4741397D01*
X6204343Y4743046D01*
X6207846Y4744521D01*
X6211415Y4745822D01*
X6215047Y4746942D01*
X6218727Y4747879D01*
X6222453Y4748631D01*
X6226210Y4749198D01*
X6229990Y4749576D01*
X6233784Y4749766D01*
X6237584Y4749766D01*
X6241379Y4749576D01*
X6245158Y4749198D01*
X6248915Y4748631D01*
X6252641Y4747879D01*
X6256322Y4746942D01*
X6259954Y4745822D01*
X6263523Y4744521D01*
X6267025Y4743046D01*
X6270447Y4741397D01*
X6273784Y4739581D01*
X6277025Y4737600D01*
X6280165Y4735459D01*
X6283195Y4733165D01*
X6286106Y4730722D01*
X6288890Y4728138D01*
X6291544Y4725418D01*
X6294056Y4722571D01*
X6296426Y4719599D01*
X6298643Y4716515D01*
X6300706Y4713323D01*
X6302606Y4710033D01*
X6304338Y4706653D01*
X6305900Y4703188D01*
X6307289Y4699652D01*
X6308498Y4696051D01*
X6309527Y4692393D01*
X6310373Y4688687D01*
X6311033Y4684946D01*
X6311506Y4681176D01*
X6311790Y4677387D01*
X6311884Y4673589D01*
G37*
G36*
X6057884Y4470389D02*
G01*
X6057790Y4466592D01*
X6057506Y4462802D01*
X6057033Y4459033D01*
X6056373Y4455292D01*
X6055527Y4451586D01*
X6054498Y4447928D01*
X6053289Y4444326D01*
X6051900Y4440791D01*
X6050338Y4437326D01*
X6048606Y4433945D01*
X6046706Y4430656D01*
X6044643Y4427463D01*
X6042426Y4424380D01*
X6040056Y4421408D01*
X6037544Y4418561D01*
X6034890Y4415840D01*
X6032106Y4413257D01*
X6029195Y4410814D01*
X6026165Y4408520D01*
X6023025Y4406379D01*
X6019784Y4404398D01*
X6016447Y4402581D01*
X6013025Y4400933D01*
X6009523Y4399457D01*
X6005954Y4398157D01*
X6002322Y4397037D01*
X5998641Y4396099D01*
X5994915Y4395348D01*
X5991158Y4394781D01*
X5987379Y4394403D01*
X5983584Y4394212D01*
X5979784Y4394212D01*
X5975990Y4394403D01*
X5972210Y4394781D01*
X5968453Y4395348D01*
X5964727Y4396099D01*
X5961047Y4397037D01*
X5957415Y4398157D01*
X5953846Y4399457D01*
X5950343Y4400933D01*
X5946922Y4402581D01*
X5943584Y4404398D01*
X5940343Y4406379D01*
X5937204Y4408520D01*
X5934174Y4410814D01*
X5931263Y4413257D01*
X5928479Y4415840D01*
X5925825Y4418561D01*
X5923313Y4421408D01*
X5920943Y4424380D01*
X5918725Y4427463D01*
X5916663Y4430656D01*
X5914763Y4433945D01*
X5913031Y4437326D01*
X5911468Y4440791D01*
X5910079Y4444326D01*
X5908870Y4447928D01*
X5907841Y4451586D01*
X5906996Y4455292D01*
X5906335Y4459033D01*
X5905863Y4462802D01*
X5905578Y4466592D01*
X5905484Y4470389D01*
X5905484Y4673589D01*
X5905578Y4677387D01*
X5905863Y4681176D01*
X5906335Y4683749D01*
X5906996Y4688687D01*
X5907841Y4692393D01*
X5908870Y4696051D01*
X5910079Y4699652D01*
X5911468Y4703188D01*
X5913031Y4706653D01*
X5914763Y4710033D01*
X5916663Y4713323D01*
X5918725Y4716515D01*
X5920943Y4719599D01*
X5923313Y4722571D01*
X5925825Y4725418D01*
X5928479Y4728138D01*
X5931263Y4730722D01*
X5934174Y4733165D01*
X5937204Y4735459D01*
X5940343Y4737600D01*
X5943584Y4739581D01*
X5946922Y4741397D01*
X5950343Y4743046D01*
X5953846Y4744521D01*
X5957415Y4745822D01*
X5961047Y4746942D01*
X5964727Y4747879D01*
X5968453Y4748631D01*
X5972210Y4749198D01*
X5975990Y4749576D01*
X5979784Y4749766D01*
X5983584Y4749766D01*
X5987379Y4749576D01*
X5991158Y4749198D01*
X5994915Y4748631D01*
X5998641Y4747879D01*
X6002322Y4746942D01*
X6005954Y4745822D01*
X6009523Y4744521D01*
X6013025Y4743046D01*
X6016447Y4741397D01*
X6019784Y4739581D01*
X6023025Y4737600D01*
X6026165Y4735459D01*
X6029195Y4733165D01*
X6032106Y4730722D01*
X6034890Y4728138D01*
X6037544Y4725418D01*
X6040056Y4722571D01*
X6042426Y4719599D01*
X6044643Y4716515D01*
X6046706Y4713323D01*
X6048606Y4710033D01*
X6050338Y4706653D01*
X6051900Y4703188D01*
X6053289Y4699652D01*
X6054498Y4696051D01*
X6055527Y4692393D01*
X6056373Y4688687D01*
X6057033Y4684946D01*
X6057506Y4681176D01*
X6057790Y4677387D01*
X6057884Y4673589D01*
G37*
G36*
X5803884Y4470389D02*
G01*
X5803790Y4466592D01*
X5803506Y4462802D01*
X5803033Y4459033D01*
X5802373Y4455292D01*
X5801527Y4451586D01*
X5800498Y4447928D01*
X5799289Y4444326D01*
X5797900Y4440791D01*
X5796338Y4437326D01*
X5794606Y4433945D01*
X5792706Y4430656D01*
X5790643Y4427463D01*
X5788426Y4424380D01*
X5786056Y4421408D01*
X5783544Y4418561D01*
X5780890Y4415840D01*
X5778106Y4413257D01*
X5775195Y4410814D01*
X5772165Y4408520D01*
X5769025Y4406379D01*
X5765784Y4404398D01*
X5762447Y4402581D01*
X5759025Y4400933D01*
X5755523Y4399457D01*
X5751954Y4398157D01*
X5748322Y4397037D01*
X5744641Y4396099D01*
X5740915Y4395348D01*
X5737158Y4394781D01*
X5733379Y4394403D01*
X5729584Y4394212D01*
X5725784Y4394212D01*
X5721990Y4394403D01*
X5718210Y4394781D01*
X5714453Y4395348D01*
X5710727Y4396099D01*
X5707047Y4397037D01*
X5703415Y4398157D01*
X5699846Y4399457D01*
X5696343Y4400933D01*
X5692922Y4402581D01*
X5689584Y4404398D01*
X5686343Y4406379D01*
X5683204Y4408520D01*
X5680174Y4410814D01*
X5677263Y4413257D01*
X5674479Y4415840D01*
X5671825Y4418561D01*
X5669313Y4421408D01*
X5666943Y4424380D01*
X5664725Y4427463D01*
X5662663Y4430656D01*
X5660763Y4433945D01*
X5659031Y4437326D01*
X5657468Y4440791D01*
X5656079Y4444326D01*
X5654870Y4447928D01*
X5653841Y4451586D01*
X5652996Y4455292D01*
X5652335Y4459033D01*
X5651863Y4462802D01*
X5651578Y4466592D01*
X5651484Y4470389D01*
X5651484Y4673589D01*
X5651578Y4677387D01*
X5651863Y4681176D01*
X5652335Y4683749D01*
X5652996Y4688687D01*
X5653841Y4692393D01*
X5654870Y4696051D01*
X5656079Y4699652D01*
X5657468Y4703188D01*
X5659031Y4706653D01*
X5660763Y4710033D01*
X5662663Y4713323D01*
X5664725Y4716515D01*
X5666943Y4719599D01*
X5669313Y4722571D01*
X5671825Y4725418D01*
X5674479Y4728138D01*
X5677263Y4730722D01*
X5680174Y4733165D01*
X5683204Y4735459D01*
X5686343Y4737600D01*
X5689584Y4739581D01*
X5692922Y4741397D01*
X5696343Y4743046D01*
X5699846Y4744521D01*
X5703415Y4745822D01*
X5707047Y4746942D01*
X5710727Y4747879D01*
X5714453Y4748631D01*
X5718210Y4749198D01*
X5721990Y4749576D01*
X5725784Y4749766D01*
X5729584Y4749766D01*
X5733379Y4749576D01*
X5737158Y4749198D01*
X5740915Y4748631D01*
X5744641Y4747879D01*
X5748322Y4746942D01*
X5751954Y4745822D01*
X5755523Y4744521D01*
X5759025Y4743046D01*
X5762447Y4741397D01*
X5765784Y4739581D01*
X5769025Y4737600D01*
X5772165Y4735459D01*
X5775195Y4733165D01*
X5778106Y4730722D01*
X5780890Y4728138D01*
X5783544Y4725418D01*
X5786056Y4722571D01*
X5788426Y4719599D01*
X5790643Y4716515D01*
X5792706Y4713323D01*
X5794606Y4710033D01*
X5796338Y4706653D01*
X5797900Y4703188D01*
X5799289Y4699652D01*
X5800498Y4696051D01*
X5801527Y4692393D01*
X5802373Y4688687D01*
X5803033Y4684946D01*
X5803506Y4681176D01*
X5803790Y4677387D01*
X5803884Y4673589D01*
G37*
G36*
X5549884Y4470389D02*
G01*
X5549790Y4466592D01*
X5549506Y4462802D01*
X5549033Y4459033D01*
X5548373Y4455292D01*
X5547527Y4451586D01*
X5546498Y4447928D01*
X5545289Y4444326D01*
X5543900Y4440791D01*
X5542338Y4437326D01*
X5540606Y4433945D01*
X5538706Y4430656D01*
X5536643Y4427463D01*
X5534426Y4424380D01*
X5532056Y4421408D01*
X5529544Y4418561D01*
X5526890Y4415840D01*
X5524106Y4413257D01*
X5521195Y4410814D01*
X5518165Y4408520D01*
X5515025Y4406379D01*
X5511784Y4404398D01*
X5508447Y4402581D01*
X5505025Y4400933D01*
X5501523Y4399457D01*
X5497954Y4398157D01*
X5494322Y4397037D01*
X5490641Y4396099D01*
X5486915Y4395348D01*
X5483158Y4394781D01*
X5479379Y4394403D01*
X5475584Y4394212D01*
X5471784Y4394212D01*
X5467990Y4394403D01*
X5464210Y4394781D01*
X5460453Y4395348D01*
X5456727Y4396099D01*
X5453047Y4397037D01*
X5449415Y4398157D01*
X5445846Y4399457D01*
X5442343Y4400933D01*
X5438922Y4402581D01*
X5435584Y4404398D01*
X5432343Y4406379D01*
X5429204Y4408520D01*
X5426174Y4410814D01*
X5423263Y4413257D01*
X5420479Y4415840D01*
X5417825Y4418561D01*
X5415313Y4421408D01*
X5412943Y4424380D01*
X5410725Y4427463D01*
X5408663Y4430656D01*
X5406763Y4433945D01*
X5405031Y4437326D01*
X5403468Y4440791D01*
X5402079Y4444326D01*
X5400870Y4447928D01*
X5399841Y4451586D01*
X5398996Y4455292D01*
X5398335Y4459033D01*
X5397863Y4462802D01*
X5397578Y4466592D01*
X5397484Y4470389D01*
X5397484Y4673589D01*
X5397578Y4677387D01*
X5397863Y4681176D01*
X5398335Y4683749D01*
X5398996Y4688687D01*
X5399841Y4692393D01*
X5400870Y4696051D01*
X5402079Y4699652D01*
X5403468Y4703188D01*
X5405031Y4706653D01*
X5406763Y4710033D01*
X5408663Y4713323D01*
X5410725Y4716515D01*
X5412943Y4719599D01*
X5415313Y4722571D01*
X5417825Y4725418D01*
X5420479Y4728138D01*
X5423263Y4730722D01*
X5426174Y4733165D01*
X5429204Y4735459D01*
X5432343Y4737600D01*
X5435584Y4739581D01*
X5438922Y4741397D01*
X5442343Y4743046D01*
X5445846Y4744521D01*
X5449415Y4745822D01*
X5453047Y4746942D01*
X5456727Y4747879D01*
X5460453Y4748631D01*
X5464210Y4749198D01*
X5467990Y4749576D01*
X5471784Y4749766D01*
X5475584Y4749766D01*
X5479379Y4749576D01*
X5483158Y4749198D01*
X5486915Y4748631D01*
X5490641Y4747879D01*
X5494322Y4746942D01*
X5497954Y4745822D01*
X5501523Y4744521D01*
X5505025Y4743046D01*
X5508447Y4741397D01*
X5511784Y4739581D01*
X5515025Y4737600D01*
X5518165Y4735459D01*
X5521195Y4733165D01*
X5524106Y4730722D01*
X5526890Y4728138D01*
X5529544Y4725418D01*
X5532056Y4722571D01*
X5534426Y4719599D01*
X5536643Y4716515D01*
X5538706Y4713323D01*
X5540606Y4710033D01*
X5542338Y4706653D01*
X5543900Y4703188D01*
X5545289Y4699652D01*
X5546498Y4696051D01*
X5547527Y4692393D01*
X5548373Y4688687D01*
X5549033Y4684946D01*
X5549506Y4681176D01*
X5549790Y4677387D01*
X5549884Y4673589D01*
G37*
G36*
X5397487Y2971792D02*
G01*
X5397581Y2975589D01*
X5397865Y2979379D01*
X5398338Y2983148D01*
X5398998Y2986890D01*
X5399844Y2990595D01*
X5400873Y2994253D01*
X5402082Y2997855D01*
X5403471Y3001390D01*
X5405033Y3004855D01*
X5406765Y3008236D01*
X5408665Y3011525D01*
X5410728Y3014718D01*
X5412945Y3017801D01*
X5415315Y3020773D01*
X5417827Y3023621D01*
X5420481Y3026341D01*
X5423265Y3028924D01*
X5426176Y3031368D01*
X5429206Y3033661D01*
X5432346Y3035802D01*
X5435587Y3037784D01*
X5438924Y3039600D01*
X5442346Y3041248D01*
X5445848Y3042724D01*
X5449417Y3044024D01*
X5453049Y3045145D01*
X5456730Y3046082D01*
X5460456Y3046834D01*
X5464213Y3047400D01*
X5467992Y3047779D01*
X5471787Y3047969D01*
X5475587Y3047969D01*
X5479381Y3047779D01*
X5483161Y3047400D01*
X5486918Y3046834D01*
X5490644Y3046082D01*
X5494324Y3045145D01*
X5497956Y3044024D01*
X5501525Y3042724D01*
X5505028Y3041248D01*
X5508449Y3039600D01*
X5511787Y3037784D01*
X5515028Y3035802D01*
X5518167Y3033661D01*
X5521197Y3031368D01*
X5524108Y3028924D01*
X5526892Y3026341D01*
X5529546Y3023621D01*
X5532059Y3020773D01*
X5534428Y3017801D01*
X5536646Y3014718D01*
X5538708Y3011525D01*
X5540608Y3008236D01*
X5542340Y3004855D01*
X5543903Y3001390D01*
X5545292Y2997855D01*
X5546501Y2994253D01*
X5547530Y2990595D01*
X5548375Y2986890D01*
X5549036Y2983148D01*
X5549508Y2979379D01*
X5549793Y2975589D01*
X5549887Y2971792D01*
X5549887Y2768592D01*
X5549793Y2764795D01*
X5549508Y2761005D01*
X5549036Y2758432D01*
X5548375Y2753494D01*
X5547530Y2749788D01*
X5546501Y2746131D01*
X5545292Y2742529D01*
X5543903Y2738993D01*
X5542340Y2735529D01*
X5540608Y2732148D01*
X5538708Y2728859D01*
X5536646Y2725666D01*
X5534428Y2722582D01*
X5532059Y2719611D01*
X5529546Y2716763D01*
X5526892Y2714043D01*
X5524108Y2711460D01*
X5521197Y2709016D01*
X5518167Y2706723D01*
X5515028Y2704581D01*
X5511787Y2702600D01*
X5508449Y2700784D01*
X5505028Y2699136D01*
X5501525Y2697660D01*
X5497956Y2696359D01*
X5494324Y2695239D01*
X5490644Y2694302D01*
X5486918Y2693550D01*
X5483161Y2692984D01*
X5479381Y2692605D01*
X5475587Y2692415D01*
X5471787Y2692415D01*
X5467992Y2692605D01*
X5464213Y2692984D01*
X5460456Y2693550D01*
X5456730Y2694302D01*
X5453049Y2695239D01*
X5449417Y2696359D01*
X5445848Y2697660D01*
X5442346Y2699136D01*
X5438924Y2700784D01*
X5435587Y2702600D01*
X5432346Y2704581D01*
X5429206Y2706723D01*
X5426176Y2709016D01*
X5423265Y2711460D01*
X5420481Y2714043D01*
X5417827Y2716763D01*
X5415315Y2719611D01*
X5412945Y2722582D01*
X5410728Y2725666D01*
X5408665Y2728859D01*
X5406765Y2732148D01*
X5405033Y2735529D01*
X5403471Y2738993D01*
X5402082Y2742529D01*
X5400873Y2746131D01*
X5399844Y2749788D01*
X5398998Y2753494D01*
X5398338Y2757236D01*
X5397865Y2761005D01*
X5397581Y2764795D01*
X5397487Y2768592D01*
G37*
G36*
X5651487Y2971792D02*
G01*
X5651581Y2975589D01*
X5651865Y2979379D01*
X5652338Y2983148D01*
X5652998Y2986890D01*
X5653844Y2990595D01*
X5654873Y2994253D01*
X5656082Y2997855D01*
X5657471Y3001390D01*
X5659033Y3004855D01*
X5660765Y3008236D01*
X5662665Y3011525D01*
X5664728Y3014718D01*
X5666945Y3017801D01*
X5669315Y3020773D01*
X5671827Y3023621D01*
X5674481Y3026341D01*
X5677265Y3028924D01*
X5680176Y3031368D01*
X5683206Y3033661D01*
X5686346Y3035802D01*
X5689587Y3037784D01*
X5692924Y3039600D01*
X5696346Y3041248D01*
X5699848Y3042724D01*
X5703417Y3044024D01*
X5707049Y3045145D01*
X5710730Y3046082D01*
X5714456Y3046834D01*
X5718213Y3047400D01*
X5721992Y3047779D01*
X5725787Y3047969D01*
X5729587Y3047969D01*
X5733381Y3047779D01*
X5737161Y3047400D01*
X5740918Y3046834D01*
X5744644Y3046082D01*
X5748324Y3045145D01*
X5751956Y3044024D01*
X5755525Y3042724D01*
X5759028Y3041248D01*
X5762449Y3039600D01*
X5765787Y3037784D01*
X5769028Y3035802D01*
X5772167Y3033661D01*
X5775197Y3031368D01*
X5778108Y3028924D01*
X5780892Y3026341D01*
X5783546Y3023621D01*
X5786059Y3020773D01*
X5788428Y3017801D01*
X5790646Y3014718D01*
X5792708Y3011525D01*
X5794608Y3008236D01*
X5796340Y3004855D01*
X5797903Y3001390D01*
X5799292Y2997855D01*
X5800501Y2994253D01*
X5801530Y2990595D01*
X5802375Y2986890D01*
X5803036Y2983148D01*
X5803508Y2979379D01*
X5803793Y2975589D01*
X5803887Y2971792D01*
X5803887Y2768592D01*
X5803793Y2764795D01*
X5803508Y2761005D01*
X5803036Y2758432D01*
X5802375Y2753494D01*
X5801530Y2749788D01*
X5800501Y2746131D01*
X5799292Y2742529D01*
X5797903Y2738993D01*
X5796340Y2735529D01*
X5794608Y2732148D01*
X5792708Y2728859D01*
X5790646Y2725666D01*
X5788428Y2722582D01*
X5786059Y2719611D01*
X5783546Y2716763D01*
X5780892Y2714043D01*
X5778108Y2711460D01*
X5775197Y2709016D01*
X5772167Y2706723D01*
X5769028Y2704581D01*
X5765787Y2702600D01*
X5762449Y2700784D01*
X5759028Y2699136D01*
X5755525Y2697660D01*
X5751956Y2696359D01*
X5748324Y2695239D01*
X5744644Y2694302D01*
X5740918Y2693550D01*
X5737161Y2692984D01*
X5733381Y2692605D01*
X5729587Y2692415D01*
X5725787Y2692415D01*
X5721992Y2692605D01*
X5718213Y2692984D01*
X5714456Y2693550D01*
X5710730Y2694302D01*
X5707049Y2695239D01*
X5703417Y2696359D01*
X5699848Y2697660D01*
X5696346Y2699136D01*
X5692924Y2700784D01*
X5689587Y2702600D01*
X5686346Y2704581D01*
X5683206Y2706723D01*
X5680176Y2709016D01*
X5677265Y2711460D01*
X5674481Y2714043D01*
X5671827Y2716763D01*
X5669315Y2719611D01*
X5666945Y2722582D01*
X5664728Y2725666D01*
X5662665Y2728859D01*
X5660765Y2732148D01*
X5659033Y2735529D01*
X5657471Y2738993D01*
X5656082Y2742529D01*
X5654873Y2746131D01*
X5653844Y2749788D01*
X5652998Y2753494D01*
X5652338Y2757236D01*
X5651865Y2761005D01*
X5651581Y2764795D01*
X5651487Y2768592D01*
G37*
G36*
X5905487Y2971792D02*
G01*
X5905581Y2975589D01*
X5905865Y2979379D01*
X5906338Y2983148D01*
X5906998Y2986890D01*
X5907844Y2990595D01*
X5908873Y2994253D01*
X5910082Y2997855D01*
X5911471Y3001390D01*
X5913033Y3004855D01*
X5914765Y3008236D01*
X5916665Y3011525D01*
X5918728Y3014718D01*
X5920945Y3017801D01*
X5923315Y3020773D01*
X5925827Y3023621D01*
X5928481Y3026341D01*
X5931265Y3028924D01*
X5934176Y3031368D01*
X5937206Y3033661D01*
X5940346Y3035802D01*
X5943587Y3037784D01*
X5946924Y3039600D01*
X5950346Y3041248D01*
X5953848Y3042724D01*
X5957417Y3044024D01*
X5961049Y3045145D01*
X5964730Y3046082D01*
X5968456Y3046834D01*
X5972213Y3047400D01*
X5975992Y3047779D01*
X5979787Y3047969D01*
X5983587Y3047969D01*
X5987381Y3047779D01*
X5991161Y3047400D01*
X5994918Y3046834D01*
X5998644Y3046082D01*
X6002324Y3045145D01*
X6005956Y3044024D01*
X6009525Y3042724D01*
X6013028Y3041248D01*
X6016449Y3039600D01*
X6019787Y3037784D01*
X6023028Y3035802D01*
X6026167Y3033661D01*
X6029197Y3031368D01*
X6032108Y3028924D01*
X6034892Y3026341D01*
X6037546Y3023621D01*
X6040059Y3020773D01*
X6042428Y3017801D01*
X6044646Y3014718D01*
X6046708Y3011525D01*
X6048608Y3008236D01*
X6050340Y3004855D01*
X6051903Y3001390D01*
X6053292Y2997855D01*
X6054501Y2994253D01*
X6055530Y2990595D01*
X6056375Y2986890D01*
X6057036Y2983148D01*
X6057508Y2979379D01*
X6057793Y2975589D01*
X6057887Y2971792D01*
X6057887Y2768592D01*
X6057793Y2764795D01*
X6057508Y2761005D01*
X6057036Y2758432D01*
X6056375Y2753494D01*
X6055530Y2749788D01*
X6054501Y2746131D01*
X6053292Y2742529D01*
X6051903Y2738993D01*
X6050340Y2735529D01*
X6048608Y2732148D01*
X6046708Y2728859D01*
X6044646Y2725666D01*
X6042428Y2722582D01*
X6040059Y2719611D01*
X6037546Y2716763D01*
X6034892Y2714043D01*
X6032108Y2711460D01*
X6029197Y2709016D01*
X6026167Y2706723D01*
X6023028Y2704581D01*
X6019787Y2702600D01*
X6016449Y2700784D01*
X6013028Y2699136D01*
X6009525Y2697660D01*
X6005956Y2696359D01*
X6002324Y2695239D01*
X5998644Y2694302D01*
X5994918Y2693550D01*
X5991161Y2692984D01*
X5987381Y2692605D01*
X5983587Y2692415D01*
X5979787Y2692415D01*
X5975992Y2692605D01*
X5972213Y2692984D01*
X5968456Y2693550D01*
X5964730Y2694302D01*
X5961049Y2695239D01*
X5957417Y2696359D01*
X5953848Y2697660D01*
X5950346Y2699136D01*
X5946924Y2700784D01*
X5943587Y2702600D01*
X5940346Y2704581D01*
X5937206Y2706723D01*
X5934176Y2709016D01*
X5931265Y2711460D01*
X5928481Y2714043D01*
X5925827Y2716763D01*
X5923315Y2719611D01*
X5920945Y2722582D01*
X5918728Y2725666D01*
X5916665Y2728859D01*
X5914765Y2732148D01*
X5913033Y2735529D01*
X5911471Y2738993D01*
X5910082Y2742529D01*
X5908873Y2746131D01*
X5907844Y2749788D01*
X5906998Y2753494D01*
X5906338Y2757236D01*
X5905865Y2761005D01*
X5905581Y2764795D01*
X5905487Y2768592D01*
G37*
G36*
X6159487Y2971792D02*
G01*
X6159581Y2975589D01*
X6159865Y2979379D01*
X6160338Y2983148D01*
X6160998Y2986890D01*
X6161844Y2990595D01*
X6162873Y2994253D01*
X6164082Y2997855D01*
X6165471Y3001390D01*
X6167033Y3004855D01*
X6168765Y3008236D01*
X6170665Y3011525D01*
X6172728Y3014718D01*
X6174945Y3017801D01*
X6177315Y3020773D01*
X6179827Y3023621D01*
X6182481Y3026341D01*
X6185265Y3028924D01*
X6188176Y3031368D01*
X6191206Y3033661D01*
X6194346Y3035802D01*
X6197587Y3037784D01*
X6200924Y3039600D01*
X6204346Y3041248D01*
X6207848Y3042724D01*
X6211417Y3044024D01*
X6215049Y3045145D01*
X6218730Y3046082D01*
X6222456Y3046834D01*
X6226213Y3047400D01*
X6229992Y3047779D01*
X6233787Y3047969D01*
X6237587Y3047969D01*
X6241381Y3047779D01*
X6245161Y3047400D01*
X6248918Y3046834D01*
X6252644Y3046082D01*
X6256324Y3045145D01*
X6259956Y3044024D01*
X6263525Y3042724D01*
X6267028Y3041248D01*
X6270449Y3039600D01*
X6273787Y3037784D01*
X6277028Y3035802D01*
X6280167Y3033661D01*
X6283197Y3031368D01*
X6286108Y3028924D01*
X6288892Y3026341D01*
X6291546Y3023621D01*
X6294059Y3020773D01*
X6296428Y3017801D01*
X6298646Y3014718D01*
X6300708Y3011525D01*
X6302608Y3008236D01*
X6304340Y3004855D01*
X6305903Y3001390D01*
X6307292Y2997855D01*
X6308501Y2994253D01*
X6309530Y2990595D01*
X6310375Y2986890D01*
X6311036Y2983148D01*
X6311508Y2979379D01*
X6311793Y2975589D01*
X6311887Y2971792D01*
X6311887Y2768592D01*
X6311793Y2764795D01*
X6311508Y2761005D01*
X6311036Y2758432D01*
X6310375Y2753494D01*
X6309530Y2749788D01*
X6308501Y2746131D01*
X6307292Y2742529D01*
X6305903Y2738993D01*
X6304340Y2735529D01*
X6302608Y2732148D01*
X6300708Y2728859D01*
X6298646Y2725666D01*
X6296428Y2722582D01*
X6294059Y2719611D01*
X6291546Y2716763D01*
X6288892Y2714043D01*
X6286108Y2711460D01*
X6283197Y2709016D01*
X6280167Y2706723D01*
X6277028Y2704581D01*
X6273787Y2702600D01*
X6270449Y2700784D01*
X6267028Y2699136D01*
X6263525Y2697660D01*
X6259956Y2696359D01*
X6256324Y2695239D01*
X6252644Y2694302D01*
X6248918Y2693550D01*
X6245161Y2692984D01*
X6241381Y2692605D01*
X6237587Y2692415D01*
X6233787Y2692415D01*
X6229992Y2692605D01*
X6226213Y2692984D01*
X6222456Y2693550D01*
X6218730Y2694302D01*
X6215049Y2695239D01*
X6211417Y2696359D01*
X6207848Y2697660D01*
X6204346Y2699136D01*
X6200924Y2700784D01*
X6197587Y2702600D01*
X6194346Y2704581D01*
X6191206Y2706723D01*
X6188176Y2709016D01*
X6185265Y2711460D01*
X6182481Y2714043D01*
X6179827Y2716763D01*
X6177315Y2719611D01*
X6174945Y2722582D01*
X6172728Y2725666D01*
X6170665Y2728859D01*
X6168765Y2732148D01*
X6167033Y2735529D01*
X6165471Y2738993D01*
X6164082Y2742529D01*
X6162873Y2746131D01*
X6161844Y2749788D01*
X6160998Y2753494D01*
X6160338Y2757236D01*
X6159865Y2761005D01*
X6159581Y2764795D01*
X6159487Y2768592D01*
G37*
G36*
X6413484Y2971792D02*
G01*
X6413578Y2975589D01*
X6413863Y2979379D01*
X6414335Y2983148D01*
X6414996Y2986890D01*
X6415841Y2990595D01*
X6416870Y2994253D01*
X6418079Y2997855D01*
X6419468Y3001390D01*
X6421031Y3004855D01*
X6422763Y3008236D01*
X6424663Y3011525D01*
X6426725Y3014718D01*
X6428943Y3017801D01*
X6431313Y3020773D01*
X6433825Y3023621D01*
X6436479Y3026341D01*
X6439263Y3028924D01*
X6442174Y3031368D01*
X6445204Y3033661D01*
X6448343Y3035802D01*
X6451584Y3037784D01*
X6454922Y3039600D01*
X6458343Y3041248D01*
X6461846Y3042724D01*
X6465415Y3044024D01*
X6469047Y3045145D01*
X6472727Y3046082D01*
X6476453Y3046834D01*
X6480210Y3047400D01*
X6483990Y3047779D01*
X6487784Y3047969D01*
X6491584Y3047969D01*
X6495379Y3047779D01*
X6499158Y3047400D01*
X6502915Y3046834D01*
X6506641Y3046082D01*
X6510322Y3045145D01*
X6513954Y3044024D01*
X6517523Y3042724D01*
X6521025Y3041248D01*
X6524447Y3039600D01*
X6527784Y3037784D01*
X6531025Y3035802D01*
X6534165Y3033661D01*
X6537195Y3031368D01*
X6540106Y3028924D01*
X6542890Y3026341D01*
X6545544Y3023621D01*
X6548056Y3020773D01*
X6550426Y3017801D01*
X6552643Y3014718D01*
X6554706Y3011525D01*
X6556606Y3008236D01*
X6558338Y3004855D01*
X6559900Y3001390D01*
X6561289Y2997855D01*
X6562498Y2994253D01*
X6563527Y2990595D01*
X6564373Y2986890D01*
X6565033Y2983148D01*
X6565506Y2979379D01*
X6565790Y2975589D01*
X6565884Y2971792D01*
X6565884Y2768592D01*
X6565790Y2764795D01*
X6565506Y2761005D01*
X6565033Y2758432D01*
X6564373Y2753494D01*
X6563527Y2749788D01*
X6562498Y2746131D01*
X6561289Y2742529D01*
X6559900Y2738993D01*
X6558338Y2735529D01*
X6556606Y2732148D01*
X6554706Y2728859D01*
X6552643Y2725666D01*
X6550426Y2722582D01*
X6548056Y2719611D01*
X6545544Y2716763D01*
X6542890Y2714043D01*
X6540106Y2711460D01*
X6537195Y2709016D01*
X6534165Y2706723D01*
X6531025Y2704581D01*
X6527784Y2702600D01*
X6524447Y2700784D01*
X6521025Y2699136D01*
X6517523Y2697660D01*
X6513954Y2696359D01*
X6510322Y2695239D01*
X6506641Y2694302D01*
X6502915Y2693550D01*
X6499158Y2692984D01*
X6495379Y2692605D01*
X6491584Y2692415D01*
X6487784Y2692415D01*
X6483990Y2692605D01*
X6480210Y2692984D01*
X6476453Y2693550D01*
X6472727Y2694302D01*
X6469047Y2695239D01*
X6465415Y2696359D01*
X6461846Y2697660D01*
X6458343Y2699136D01*
X6454922Y2700784D01*
X6451584Y2702600D01*
X6448343Y2704581D01*
X6445204Y2706723D01*
X6442174Y2709016D01*
X6439263Y2711460D01*
X6436479Y2714043D01*
X6433825Y2716763D01*
X6431313Y2719611D01*
X6428943Y2722582D01*
X6426725Y2725666D01*
X6424663Y2728859D01*
X6422763Y2732148D01*
X6421031Y2735529D01*
X6419468Y2738993D01*
X6418079Y2742529D01*
X6416870Y2746131D01*
X6415841Y2749788D01*
X6414996Y2753494D01*
X6414335Y2757236D01*
X6413863Y2761005D01*
X6413578Y2764795D01*
X6413484Y2768592D01*
G37*
G36*
X6921484Y2971792D02*
G01*
X6921578Y2975589D01*
X6921863Y2979379D01*
X6922335Y2983148D01*
X6922996Y2986890D01*
X6923841Y2990595D01*
X6924870Y2994253D01*
X6926079Y2997855D01*
X6927468Y3001390D01*
X6929031Y3004855D01*
X6930763Y3008236D01*
X6932663Y3011525D01*
X6934725Y3014718D01*
X6936943Y3017801D01*
X6939313Y3020773D01*
X6941825Y3023621D01*
X6944479Y3026341D01*
X6947263Y3028924D01*
X6950174Y3031368D01*
X6953204Y3033661D01*
X6956343Y3035802D01*
X6959584Y3037784D01*
X6962922Y3039600D01*
X6966343Y3041248D01*
X6969846Y3042724D01*
X6973415Y3044024D01*
X6977047Y3045145D01*
X6980727Y3046082D01*
X6984453Y3046834D01*
X6988210Y3047400D01*
X6991990Y3047779D01*
X6995784Y3047969D01*
X6999584Y3047969D01*
X7003379Y3047779D01*
X7007158Y3047400D01*
X7010915Y3046834D01*
X7014641Y3046082D01*
X7018322Y3045145D01*
X7021954Y3044024D01*
X7025523Y3042724D01*
X7029025Y3041248D01*
X7032447Y3039600D01*
X7035784Y3037784D01*
X7039025Y3035802D01*
X7042165Y3033661D01*
X7045195Y3031368D01*
X7048106Y3028924D01*
X7050890Y3026341D01*
X7053544Y3023621D01*
X7056056Y3020773D01*
X7058426Y3017801D01*
X7060643Y3014718D01*
X7062706Y3011525D01*
X7064606Y3008236D01*
X7066338Y3004855D01*
X7067900Y3001390D01*
X7069289Y2997855D01*
X7070498Y2994253D01*
X7071527Y2990595D01*
X7072373Y2986890D01*
X7073033Y2983148D01*
X7073506Y2979379D01*
X7073790Y2975589D01*
X7073884Y2971792D01*
X7073884Y2768592D01*
X7073790Y2764795D01*
X7073506Y2761005D01*
X7073033Y2758432D01*
X7072373Y2753494D01*
X7071527Y2749788D01*
X7070498Y2746131D01*
X7069289Y2742529D01*
X7067900Y2738993D01*
X7066338Y2735529D01*
X7064606Y2732148D01*
X7062706Y2728859D01*
X7060643Y2725666D01*
X7058426Y2722582D01*
X7056056Y2719611D01*
X7053544Y2716763D01*
X7050890Y2714043D01*
X7048106Y2711460D01*
X7045195Y2709016D01*
X7042165Y2706723D01*
X7039025Y2704581D01*
X7035784Y2702600D01*
X7032447Y2700784D01*
X7029025Y2699136D01*
X7025523Y2697660D01*
X7021954Y2696359D01*
X7018322Y2695239D01*
X7014641Y2694302D01*
X7010915Y2693550D01*
X7007158Y2692984D01*
X7003379Y2692605D01*
X6999584Y2692415D01*
X6995784Y2692415D01*
X6991990Y2692605D01*
X6988210Y2692984D01*
X6984453Y2693550D01*
X6980727Y2694302D01*
X6977047Y2695239D01*
X6973415Y2696359D01*
X6969846Y2697660D01*
X6966343Y2699136D01*
X6962922Y2700784D01*
X6959584Y2702600D01*
X6956343Y2704581D01*
X6953204Y2706723D01*
X6950174Y2709016D01*
X6947263Y2711460D01*
X6944479Y2714043D01*
X6941825Y2716763D01*
X6939313Y2719611D01*
X6936943Y2722582D01*
X6934725Y2725666D01*
X6932663Y2728859D01*
X6930763Y2732148D01*
X6929031Y2735529D01*
X6927468Y2738993D01*
X6926079Y2742529D01*
X6924870Y2746131D01*
X6923841Y2749788D01*
X6922996Y2753494D01*
X6922335Y2757236D01*
X6921863Y2761005D01*
X6921578Y2764795D01*
X6921484Y2768592D01*
G37*
D20*
G01*
X6743684Y2870192D03*
D21*
G01*
X5727684Y4178289D03*
G01*
X5829284Y4178289D03*
G01*
X5930884Y4178289D03*
G01*
X6032484Y4178289D03*
G01*
X6134084Y4178289D03*
G01*
X5778484Y4127489D03*
G01*
X5880084Y4127489D03*
G01*
X5981684Y4127489D03*
G01*
X6083284Y4127489D03*
G01*
X5727684Y4076689D03*
G01*
X5829284Y4076689D03*
G01*
X5930884Y4076689D03*
G01*
X6032484Y4076689D03*
G01*
X6134084Y4076689D03*
G01*
X5778484Y4025889D03*
G01*
X5880084Y4025889D03*
G01*
X5981684Y4025889D03*
G01*
X6083284Y4025889D03*
G01*
X5727684Y3975089D03*
G01*
X5829284Y3975089D03*
G01*
X5930884Y3975089D03*
G01*
X6032484Y3975089D03*
G01*
X6134084Y3975089D03*
G01*
X5778484Y3924289D03*
G01*
X5880084Y3924289D03*
G01*
X5981684Y3924289D03*
G01*
X6083284Y3924289D03*
G01*
X5727684Y3873489D03*
G01*
X5829284Y3873489D03*
G01*
X5930884Y3873489D03*
G01*
X6032484Y3873489D03*
G01*
X6134084Y3873489D03*
G01*
X5778484Y3822689D03*
G01*
X5880084Y3822689D03*
G01*
X5981684Y3822689D03*
G01*
X6083284Y3822689D03*
G01*
X5727684Y3771889D03*
G01*
X5829284Y3771889D03*
G01*
X5930884Y3771889D03*
G01*
X6032484Y3771889D03*
G01*
X6134084Y3771889D03*
D22*
G01*
X7150100Y5803900D03*
G01*
X977900Y-215900D03*
M02*
